<?xml version="1.0" encoding="UTF-8"?>
<svg xmlns="http://www.w3.org/2000/svg" viewBox="0 0 1400 1750" preserveAspectRatio="xMidYMid slice">
  <defs>
    <radialGradient id="bg" cx="50%" cy="38%" r="80%">
      <stop offset="0%" stop-color="#F2E9D8"/>
      <stop offset="100%" stop-color="#D4C4A8"/>
    </radialGradient>
    <radialGradient id="rim" cx="50%" cy="45%" r="65%">
      <stop offset="0%" stop-color="#FFFEFB"/>
      <stop offset="100%" stop-color="#E8DCC4"/>
    </radialGradient>
    <radialGradient id="pudding" cx="50%" cy="42%" r="60%">
      <stop offset="0%" stop-color="#FFFCF4"/>
      <stop offset="100%" stop-color="#F0E5CC"/>
    </radialGradient>
    <filter id="soft" x="-20%" y="-20%" width="140%" height="140%">
      <feGaussianBlur stdDeviation="2"/>
    </filter>
    <filter id="grain" x="0" y="0" width="100%" height="100%">
      <feTurbulence type="fractalNoise" baseFrequency="0.85" numOctaves="2" seed="17"/>
      <feColorMatrix values="0 0 0 0 0.2  0 0 0 0 0.15  0 0 0 0 0.1  0 0 0 0.08 0"/>
      <feComposite in2="SourceGraphic" operator="in"/>
    </filter>
  </defs>

  <rect width="1400" height="1750" fill="url(#bg)"/>
  <line x1="0" y1="1365.0" x2="1400" y2="1367.0" stroke="#3D2817" stroke-width="1" opacity="0.05"/>
  <line x1="0" y1="1400.0" x2="1400" y2="1402.0" stroke="#3D2817" stroke-width="1" opacity="0.04"/>
  <line x1="0" y1="1435.0" x2="1400" y2="1437.0" stroke="#3D2817" stroke-width="1" opacity="0.06"/>
  <line x1="0" y1="1470.0" x2="1400" y2="1472.0" stroke="#3D2817" stroke-width="1" opacity="0.09"/>
  <line x1="0" y1="1505.0" x2="1400" y2="1507.0" stroke="#3D2817" stroke-width="1" opacity="0.09"/>
  <line x1="0" y1="1540.0" x2="1400" y2="1542.0" stroke="#3D2817" stroke-width="1" opacity="0.05"/>
  <line x1="0" y1="1575.0" x2="1400" y2="1577.0" stroke="#3D2817" stroke-width="1" opacity="0.09"/>
  <line x1="0" y1="1610.0" x2="1400" y2="1612.0" stroke="#3D2817" stroke-width="1" opacity="0.06"/>
  <line x1="0" y1="1645.0" x2="1400" y2="1647.0" stroke="#3D2817" stroke-width="1" opacity="0.08"/>
  <line x1="0" y1="1680.0" x2="1400" y2="1682.0" stroke="#3D2817" stroke-width="1" opacity="0.09"/>
  <line x1="0" y1="1715.0" x2="1400" y2="1717.0" stroke="#3D2817" stroke-width="1" opacity="0.07"/>
  <line x1="0" y1="1750.0" x2="1400" y2="1752.0" stroke="#3D2817" stroke-width="1" opacity="0.05"/>
  <line x1="0" y1="1785.0" x2="1400" y2="1787.0" stroke="#3D2817" stroke-width="1" opacity="0.05"/>
  <line x1="0" y1="1820.0" x2="1400" y2="1822.0" stroke="#3D2817" stroke-width="1" opacity="0.09"/>

  <!-- table shadow under bowl -->
  <ellipse cx="700" cy="1327.2" rx="499.8" ry="85.7" fill="#3D2817" opacity="0.12" filter="url(#soft)"/>

  <!-- bowl outer rim -->
  <circle cx="700" cy="875" r="488.0" fill="#FAF7F2" opacity="0.55"/>
  <circle cx="700" cy="875" r="476.00000000000006" fill="url(#rim)"/>
  <circle cx="700" cy="875" r="476.00000000000006" fill="none" stroke="#A8893F" stroke-width="1.5" opacity="0.18"/>

  <!-- pudding surface -->
  <circle cx="700" cy="875" r="404.6" fill="url(#pudding)"/>
  <!-- subtle highlight -->
  <ellipse cx="598.9" cy="773.9" rx="222.5" ry="141.6" fill="#FFFFFE" opacity="0.35"/>

  <!-- garnish -->
  <circle cx="714.4" cy="1161.3" r="3.8" fill="#A8893F" opacity="0.84"/>
  <circle cx="559.8" cy="1099.9" r="2.9" fill="#A8893F" opacity="0.77"/>
  <circle cx="488.6" cy="862.7" r="2.9" fill="#A8893F" opacity="0.91"/>
  <circle cx="522.3" cy="941.7" r="4.3" fill="#7B5E2A" opacity="0.84"/>
  <circle cx="683.4" cy="978.7" r="5.2" fill="#7B5E2A" opacity="0.55"/>
  <circle cx="723.4" cy="745.5" r="4.6" fill="#A8893F" opacity="0.80"/>
  <circle cx="561.9" cy="1098.3" r="5.0" fill="#3D2817" opacity="0.85"/>
  <circle cx="645.9" cy="996.1" r="2.6" fill="#A8893F" opacity="0.57"/>
  <circle cx="631.0" cy="745.0" r="2.4" fill="#A8893F" opacity="0.69"/>
  <circle cx="886.9" cy="1109.4" r="2.2" fill="#7B5E2A" opacity="0.76"/>
  <circle cx="446.4" cy="1027.7" r="5.0" fill="#3D2817" opacity="0.76"/>
  <circle cx="452.0" cy="699.8" r="2.3" fill="#A8893F" opacity="0.73"/>
  <circle cx="806.8" cy="1033.4" r="2.6" fill="#A8893F" opacity="0.95"/>
  <circle cx="431.7" cy="929.7" r="4.8" fill="#7B5E2A" opacity="0.76"/>
  <circle cx="698.7" cy="1126.6" r="3.2" fill="#7B5E2A" opacity="0.94"/>
  <circle cx="394.2" cy="791.9" r="5.3" fill="#A8893F" opacity="0.95"/>
  <circle cx="851.4" cy="620.3" r="4.2" fill="#A8893F" opacity="0.81"/>
  <circle cx="616.7" cy="800.5" r="2.5" fill="#7B5E2A" opacity="0.59"/>
  <circle cx="935.6" cy="1008.0" r="4.4" fill="#A8893F" opacity="0.64"/>
  <circle cx="851.4" cy="1108.2" r="2.5" fill="#3D2817" opacity="0.58"/>
  <circle cx="872.4" cy="699.6" r="4.3" fill="#A8893F" opacity="0.76"/>
  <circle cx="910.2" cy="782.1" r="2.5" fill="#3D2817" opacity="0.92"/>
  <circle cx="894.2" cy="1102.4" r="4.2" fill="#3D2817" opacity="0.69"/>
  <circle cx="777.1" cy="990.5" r="3.8" fill="#3D2817" opacity="0.59"/>
  <circle cx="699.0" cy="604.7" r="5.7" fill="#A8893F" opacity="0.76"/>
  <circle cx="710.6" cy="600.7" r="4.4" fill="#7B5E2A" opacity="0.62"/>
  <circle cx="604.6" cy="962.6" r="2.1" fill="#A8893F" opacity="0.58"/>
  <circle cx="998.8" cy="756.8" r="3.4" fill="#A8893F" opacity="0.81"/>
  <circle cx="528.7" cy="722.4" r="3.4" fill="#A8893F" opacity="0.90"/>
  <circle cx="987.5" cy="708.8" r="3.9" fill="#7B5E2A" opacity="0.82"/>
  <circle cx="653.9" cy="904.2" r="3.9" fill="#3D2817" opacity="0.62"/>
  <circle cx="852.9" cy="815.0" r="2.4" fill="#7B5E2A" opacity="0.57"/>
  <circle cx="682.0" cy="626.6" r="2.2" fill="#3D2817" opacity="0.57"/>
  <circle cx="455.1" cy="810.4" r="2.4" fill="#A8893F" opacity="0.57"/>
  <circle cx="622.1" cy="717.8" r="6.0" fill="#3D2817" opacity="0.64"/>
  <circle cx="855.3" cy="631.3" r="2.7" fill="#A8893F" opacity="0.86"/>
  <circle cx="902.8" cy="1012.0" r="2.8" fill="#3D2817" opacity="0.78"/>
  <circle cx="604.0" cy="693.1" r="2.0" fill="#7B5E2A" opacity="0.71"/>

  
    <g opacity="0.75" transform="translate(985.6 708.4) rotate(35)">
      <ellipse cx="0" cy="0" rx="38" ry="22" fill="#C9A961" opacity="0.85"/>
      <ellipse cx="0" cy="0" rx="30" ry="16" fill="#A8893F" opacity="0.7"/>
      <rect x="-6" y="20" width="12" height="160" rx="6" fill="#C9A961" opacity="0.9"/>
    </g>

  <!-- grain overlay -->
  <rect width="1400" height="1750" filter="url(#grain)" opacity="0.5"/>

  
</svg>