<?xml version="1.0" encoding="UTF-8"?>
<svg xmlns="http://www.w3.org/2000/svg" viewBox="0 0 1200 1500" preserveAspectRatio="xMidYMid slice">
  <defs>
    <radialGradient id="bg" cx="50%" cy="38%" r="80%">
      <stop offset="0%" stop-color="#EDDAB0"/>
      <stop offset="100%" stop-color="#C49A6C"/>
    </radialGradient>
    <radialGradient id="rim" cx="50%" cy="45%" r="65%">
      <stop offset="0%" stop-color="#FFFEFB"/>
      <stop offset="100%" stop-color="#E8DCC4"/>
    </radialGradient>
    <radialGradient id="pudding" cx="50%" cy="42%" r="60%">
      <stop offset="0%" stop-color="#F2D88C"/>
      <stop offset="100%" stop-color="#C9A961"/>
    </radialGradient>
    <filter id="soft" x="-20%" y="-20%" width="140%" height="140%">
      <feGaussianBlur stdDeviation="2"/>
    </filter>
    <filter id="grain" x="0" y="0" width="100%" height="100%">
      <feTurbulence type="fractalNoise" baseFrequency="0.85" numOctaves="2" seed="55"/>
      <feColorMatrix values="0 0 0 0 0.2  0 0 0 0 0.15  0 0 0 0 0.1  0 0 0 0.08 0"/>
      <feComposite in2="SourceGraphic" operator="in"/>
    </filter>
  </defs>

  <rect width="1200" height="1500" fill="url(#bg)"/>
  <line x1="0" y1="1170.0" x2="1200" y2="1172.0" stroke="#3D2817" stroke-width="1" opacity="0.08"/>
  <line x1="0" y1="1200.0" x2="1200" y2="1202.0" stroke="#3D2817" stroke-width="1" opacity="0.09"/>
  <line x1="0" y1="1230.0" x2="1200" y2="1232.0" stroke="#3D2817" stroke-width="1" opacity="0.06"/>
  <line x1="0" y1="1260.0" x2="1200" y2="1262.0" stroke="#3D2817" stroke-width="1" opacity="0.06"/>
  <line x1="0" y1="1290.0" x2="1200" y2="1292.0" stroke="#3D2817" stroke-width="1" opacity="0.07"/>
  <line x1="0" y1="1320.0" x2="1200" y2="1322.0" stroke="#3D2817" stroke-width="1" opacity="0.04"/>
  <line x1="0" y1="1350.0" x2="1200" y2="1352.0" stroke="#3D2817" stroke-width="1" opacity="0.08"/>
  <line x1="0" y1="1380.0" x2="1200" y2="1382.0" stroke="#3D2817" stroke-width="1" opacity="0.06"/>
  <line x1="0" y1="1410.0" x2="1200" y2="1412.0" stroke="#3D2817" stroke-width="1" opacity="0.05"/>
  <line x1="0" y1="1440.0" x2="1200" y2="1442.0" stroke="#3D2817" stroke-width="1" opacity="0.07"/>
  <line x1="0" y1="1470.0" x2="1200" y2="1472.0" stroke="#3D2817" stroke-width="1" opacity="0.05"/>
  <line x1="0" y1="1500.0" x2="1200" y2="1502.0" stroke="#3D2817" stroke-width="1" opacity="0.05"/>
  <line x1="0" y1="1530.0" x2="1200" y2="1532.0" stroke="#3D2817" stroke-width="1" opacity="0.06"/>
  <line x1="0" y1="1560.0" x2="1200" y2="1562.0" stroke="#3D2817" stroke-width="1" opacity="0.06"/>

  <!-- table shadow under bowl -->
  <ellipse cx="600" cy="1137.6" rx="428.4" ry="73.4" fill="#3D2817" opacity="0.12" filter="url(#soft)"/>

  <!-- bowl outer rim -->
  <circle cx="600" cy="750" r="420.0" fill="#FAF7F2" opacity="0.55"/>
  <circle cx="600" cy="750" r="408.00000000000006" fill="url(#rim)"/>
  <circle cx="600" cy="750" r="408.00000000000006" fill="none" stroke="#A8893F" stroke-width="1.5" opacity="0.18"/>

  <!-- pudding surface -->
  <circle cx="600" cy="750" r="346.8" fill="url(#pudding)"/>
  <!-- subtle highlight -->
  <ellipse cx="513.3" cy="663.3" rx="190.7" ry="121.4" fill="#FFFFFE" opacity="0.35"/>

  <!-- garnish -->
  <circle cx="592.9" cy="890.1" r="3.9" fill="#C9A961" opacity="0.57"/>
  <circle cx="598.3" cy="688.9" r="2.1" fill="#8B3A1F" opacity="0.85"/>
  <circle cx="601.9" cy="578.0" r="3.4" fill="#5A2E1B" opacity="0.78"/>
  <circle cx="662.8" cy="829.5" r="2.6" fill="#C9A961" opacity="0.72"/>
  <circle cx="397.0" cy="708.7" r="3.1" fill="#5A2E1B" opacity="0.74"/>
  <circle cx="336.8" cy="645.1" r="5.2" fill="#C9A961" opacity="0.58"/>
  <circle cx="484.0" cy="578.7" r="3.4" fill="#C9A961" opacity="0.89"/>
  <circle cx="421.3" cy="911.3" r="3.5" fill="#8B3A1F" opacity="0.80"/>
  <circle cx="564.1" cy="747.3" r="3.5" fill="#8B3A1F" opacity="0.67"/>
  <circle cx="812.7" cy="923.4" r="3.0" fill="#C9A961" opacity="0.95"/>
  <circle cx="558.0" cy="572.3" r="4.7" fill="#8B3A1F" opacity="0.81"/>
  <circle cx="629.1" cy="940.5" r="4.1" fill="#C9A961" opacity="0.94"/>
  <circle cx="596.8" cy="544.0" r="2.5" fill="#C9A961" opacity="0.68"/>
  <circle cx="453.1" cy="768.2" r="3.7" fill="#C9A961" opacity="0.56"/>
  <circle cx="702.8" cy="671.6" r="4.8" fill="#C9A961" opacity="0.57"/>
  <circle cx="802.7" cy="819.7" r="3.3" fill="#5A2E1B" opacity="0.73"/>
  <circle cx="665.6" cy="508.3" r="3.3" fill="#5A2E1B" opacity="0.74"/>
  <circle cx="574.6" cy="769.6" r="2.5" fill="#8B3A1F" opacity="0.86"/>
  <circle cx="722.8" cy="646.4" r="3.5" fill="#8B3A1F" opacity="0.66"/>
  <circle cx="764.8" cy="910.8" r="3.7" fill="#5A2E1B" opacity="0.56"/>
  <circle cx="658.4" cy="863.4" r="2.7" fill="#C9A961" opacity="0.74"/>
  <circle cx="496.7" cy="960.7" r="3.8" fill="#5A2E1B" opacity="0.75"/>
  <circle cx="501.3" cy="584.8" r="3.8" fill="#C9A961" opacity="0.82"/>
  <circle cx="574.9" cy="786.0" r="2.8" fill="#5A2E1B" opacity="0.61"/>
  <circle cx="563.6" cy="528.4" r="5.2" fill="#5A2E1B" opacity="0.75"/>
  <circle cx="557.3" cy="571.5" r="2.0" fill="#5A2E1B" opacity="0.70"/>
  <circle cx="490.3" cy="503.1" r="4.7" fill="#8B3A1F" opacity="0.84"/>
  <circle cx="626.6" cy="633.7" r="4.5" fill="#8B3A1F" opacity="0.86"/>
  <circle cx="865.4" cy="837.6" r="2.7" fill="#5A2E1B" opacity="0.57"/>
  <circle cx="717.8" cy="630.6" r="2.7" fill="#5A2E1B" opacity="0.90"/>
  <circle cx="619.6" cy="572.0" r="2.7" fill="#5A2E1B" opacity="0.70"/>
  <circle cx="604.1" cy="1004.6" r="3.6" fill="#5A2E1B" opacity="0.93"/>

  

  <!-- grain overlay -->
  <rect width="1200" height="1500" filter="url(#grain)" opacity="0.5"/>

  
</svg>