<?xml version="1.0" encoding="UTF-8"?>
<svg xmlns="http://www.w3.org/2000/svg" viewBox="0 0 1200 1500" preserveAspectRatio="xMidYMid slice">
  <defs>
    <radialGradient id="bg" cx="50%" cy="38%" r="80%">
      <stop offset="0%" stop-color="#EDDAB8"/>
      <stop offset="100%" stop-color="#C9A961"/>
    </radialGradient>
    <radialGradient id="rim" cx="50%" cy="45%" r="65%">
      <stop offset="0%" stop-color="#FFFEFB"/>
      <stop offset="100%" stop-color="#E8DCC4"/>
    </radialGradient>
    <radialGradient id="pudding" cx="50%" cy="42%" r="60%">
      <stop offset="0%" stop-color="#EFD4A0"/>
      <stop offset="100%" stop-color="#C28E48"/>
    </radialGradient>
    <filter id="soft" x="-20%" y="-20%" width="140%" height="140%">
      <feGaussianBlur stdDeviation="2"/>
    </filter>
    <filter id="grain" x="0" y="0" width="100%" height="100%">
      <feTurbulence type="fractalNoise" baseFrequency="0.85" numOctaves="2" seed="22"/>
      <feColorMatrix values="0 0 0 0 0.2  0 0 0 0 0.15  0 0 0 0 0.1  0 0 0 0.08 0"/>
      <feComposite in2="SourceGraphic" operator="in"/>
    </filter>
  </defs>

  <rect width="1200" height="1500" fill="url(#bg)"/>
  <line x1="0" y1="1170.0" x2="1200" y2="1172.0" stroke="#3D2817" stroke-width="1" opacity="0.06"/>
  <line x1="0" y1="1200.0" x2="1200" y2="1202.0" stroke="#3D2817" stroke-width="1" opacity="0.08"/>
  <line x1="0" y1="1230.0" x2="1200" y2="1232.0" stroke="#3D2817" stroke-width="1" opacity="0.07"/>
  <line x1="0" y1="1260.0" x2="1200" y2="1262.0" stroke="#3D2817" stroke-width="1" opacity="0.07"/>
  <line x1="0" y1="1290.0" x2="1200" y2="1292.0" stroke="#3D2817" stroke-width="1" opacity="0.08"/>
  <line x1="0" y1="1320.0" x2="1200" y2="1322.0" stroke="#3D2817" stroke-width="1" opacity="0.04"/>
  <line x1="0" y1="1350.0" x2="1200" y2="1352.0" stroke="#3D2817" stroke-width="1" opacity="0.05"/>
  <line x1="0" y1="1380.0" x2="1200" y2="1382.0" stroke="#3D2817" stroke-width="1" opacity="0.06"/>
  <line x1="0" y1="1410.0" x2="1200" y2="1412.0" stroke="#3D2817" stroke-width="1" opacity="0.05"/>
  <line x1="0" y1="1440.0" x2="1200" y2="1442.0" stroke="#3D2817" stroke-width="1" opacity="0.09"/>
  <line x1="0" y1="1470.0" x2="1200" y2="1472.0" stroke="#3D2817" stroke-width="1" opacity="0.04"/>
  <line x1="0" y1="1500.0" x2="1200" y2="1502.0" stroke="#3D2817" stroke-width="1" opacity="0.07"/>
  <line x1="0" y1="1530.0" x2="1200" y2="1532.0" stroke="#3D2817" stroke-width="1" opacity="0.08"/>
  <line x1="0" y1="1560.0" x2="1200" y2="1562.0" stroke="#3D2817" stroke-width="1" opacity="0.06"/>

  <!-- table shadow under bowl -->
  <ellipse cx="600" cy="1137.6" rx="428.4" ry="73.4" fill="#3D2817" opacity="0.12" filter="url(#soft)"/>

  <!-- bowl outer rim -->
  <circle cx="600" cy="750" r="420.0" fill="#FAF7F2" opacity="0.55"/>
  <circle cx="600" cy="750" r="408.00000000000006" fill="url(#rim)"/>
  <circle cx="600" cy="750" r="408.00000000000006" fill="none" stroke="#A8893F" stroke-width="1.5" opacity="0.18"/>

  <!-- pudding surface -->
  <circle cx="600" cy="750" r="346.8" fill="url(#pudding)"/>
  <!-- subtle highlight -->
  <ellipse cx="513.3" cy="663.3" rx="190.7" ry="121.4" fill="#FFFFFE" opacity="0.35"/>

  <!-- garnish -->
  <circle cx="605.2" cy="891.9" r="5.5" fill="#5A3E26" opacity="0.57"/>
  <circle cx="841.4" cy="857.0" r="5.2" fill="#FFFEFB" opacity="0.89"/>
  <circle cx="647.4" cy="510.9" r="2.4" fill="#FFFEFB" opacity="0.56"/>
  <circle cx="609.7" cy="675.2" r="4.6" fill="#FFFEFB" opacity="0.61"/>
  <circle cx="562.3" cy="491.6" r="2.6" fill="#FFFEFB" opacity="0.79"/>
  <circle cx="720.6" cy="739.7" r="4.0" fill="#3D2817" opacity="0.84"/>
  <circle cx="575.2" cy="927.4" r="4.3" fill="#FFFEFB" opacity="0.84"/>
  <circle cx="777.4" cy="667.8" r="3.0" fill="#FFFEFB" opacity="0.87"/>
  <circle cx="471.6" cy="935.4" r="5.6" fill="#3D2817" opacity="0.70"/>
  <circle cx="764.7" cy="944.9" r="5.0" fill="#FFFEFB" opacity="0.67"/>
  <circle cx="544.8" cy="804.5" r="2.0" fill="#5A3E26" opacity="0.74"/>
  <circle cx="472.4" cy="565.1" r="5.6" fill="#FFFEFB" opacity="0.82"/>
  <circle cx="512.0" cy="811.5" r="2.6" fill="#FFFEFB" opacity="0.79"/>
  <circle cx="606.3" cy="608.7" r="5.4" fill="#3D2817" opacity="0.91"/>
  <circle cx="504.6" cy="662.9" r="2.3" fill="#FFFEFB" opacity="0.67"/>
  <circle cx="509.5" cy="832.1" r="2.4" fill="#3D2817" opacity="0.60"/>
  <circle cx="508.6" cy="648.2" r="2.7" fill="#3D2817" opacity="0.79"/>
  <circle cx="465.8" cy="978.4" r="5.2" fill="#5A3E26" opacity="0.74"/>
  <circle cx="863.6" cy="680.0" r="5.9" fill="#3D2817" opacity="0.95"/>
  <circle cx="745.7" cy="648.1" r="2.3" fill="#3D2817" opacity="0.92"/>
  <circle cx="600.2" cy="646.8" r="4.5" fill="#3D2817" opacity="0.90"/>
  <circle cx="680.0" cy="752.9" r="3.4" fill="#FFFEFB" opacity="0.68"/>
  <circle cx="696.7" cy="618.8" r="4.1" fill="#3D2817" opacity="0.55"/>
  <circle cx="648.3" cy="702.7" r="4.7" fill="#5A3E26" opacity="0.77"/>
  <circle cx="478.7" cy="761.8" r="6.0" fill="#5A3E26" opacity="0.87"/>
  <circle cx="693.6" cy="829.6" r="3.2" fill="#5A3E26" opacity="0.81"/>
  <circle cx="466.9" cy="660.3" r="2.9" fill="#FFFEFB" opacity="0.72"/>
  <circle cx="698.9" cy="520.5" r="2.1" fill="#3D2817" opacity="0.78"/>
  <circle cx="433.6" cy="876.9" r="3.1" fill="#3D2817" opacity="0.63"/>
  <circle cx="389.8" cy="628.6" r="4.1" fill="#FFFEFB" opacity="0.95"/>
  <circle cx="569.3" cy="1008.9" r="5.9" fill="#3D2817" opacity="0.90"/>
  <circle cx="493.7" cy="731.7" r="4.3" fill="#3D2817" opacity="0.57"/>

  

  <!-- grain overlay -->
  <rect width="1200" height="1500" filter="url(#grain)" opacity="0.5"/>

  
</svg>