<?xml version="1.0" encoding="UTF-8"?>
<svg xmlns="http://www.w3.org/2000/svg" viewBox="0 0 1200 1500" preserveAspectRatio="xMidYMid slice">
  <defs>
    <radialGradient id="bg" cx="50%" cy="38%" r="80%">
      <stop offset="0%" stop-color="#F2E9D8"/>
      <stop offset="100%" stop-color="#D4C4A8"/>
    </radialGradient>
    <radialGradient id="rim" cx="50%" cy="45%" r="65%">
      <stop offset="0%" stop-color="#FFFEFB"/>
      <stop offset="100%" stop-color="#E8DCC4"/>
    </radialGradient>
    <radialGradient id="pudding" cx="50%" cy="42%" r="60%">
      <stop offset="0%" stop-color="#FBF5E4"/>
      <stop offset="100%" stop-color="#E0CFA8"/>
    </radialGradient>
    <filter id="soft" x="-20%" y="-20%" width="140%" height="140%">
      <feGaussianBlur stdDeviation="2"/>
    </filter>
    <filter id="grain" x="0" y="0" width="100%" height="100%">
      <feTurbulence type="fractalNoise" baseFrequency="0.85" numOctaves="2" seed="66"/>
      <feColorMatrix values="0 0 0 0 0.2  0 0 0 0 0.15  0 0 0 0 0.1  0 0 0 0.08 0"/>
      <feComposite in2="SourceGraphic" operator="in"/>
    </filter>
  </defs>

  <rect width="1200" height="1500" fill="url(#bg)"/>
  <line x1="0" y1="1170.0" x2="1200" y2="1172.0" stroke="#3D2817" stroke-width="1" opacity="0.05"/>
  <line x1="0" y1="1200.0" x2="1200" y2="1202.0" stroke="#3D2817" stroke-width="1" opacity="0.08"/>
  <line x1="0" y1="1230.0" x2="1200" y2="1232.0" stroke="#3D2817" stroke-width="1" opacity="0.06"/>
  <line x1="0" y1="1260.0" x2="1200" y2="1262.0" stroke="#3D2817" stroke-width="1" opacity="0.04"/>
  <line x1="0" y1="1290.0" x2="1200" y2="1292.0" stroke="#3D2817" stroke-width="1" opacity="0.07"/>
  <line x1="0" y1="1320.0" x2="1200" y2="1322.0" stroke="#3D2817" stroke-width="1" opacity="0.04"/>
  <line x1="0" y1="1350.0" x2="1200" y2="1352.0" stroke="#3D2817" stroke-width="1" opacity="0.04"/>
  <line x1="0" y1="1380.0" x2="1200" y2="1382.0" stroke="#3D2817" stroke-width="1" opacity="0.04"/>
  <line x1="0" y1="1410.0" x2="1200" y2="1412.0" stroke="#3D2817" stroke-width="1" opacity="0.05"/>
  <line x1="0" y1="1440.0" x2="1200" y2="1442.0" stroke="#3D2817" stroke-width="1" opacity="0.04"/>
  <line x1="0" y1="1470.0" x2="1200" y2="1472.0" stroke="#3D2817" stroke-width="1" opacity="0.09"/>
  <line x1="0" y1="1500.0" x2="1200" y2="1502.0" stroke="#3D2817" stroke-width="1" opacity="0.08"/>
  <line x1="0" y1="1530.0" x2="1200" y2="1532.0" stroke="#3D2817" stroke-width="1" opacity="0.04"/>
  <line x1="0" y1="1560.0" x2="1200" y2="1562.0" stroke="#3D2817" stroke-width="1" opacity="0.06"/>

  <!-- table shadow under bowl -->
  <ellipse cx="600" cy="1137.6" rx="428.4" ry="73.4" fill="#3D2817" opacity="0.12" filter="url(#soft)"/>

  <!-- bowl outer rim -->
  <circle cx="600" cy="750" r="420.0" fill="#FAF7F2" opacity="0.55"/>
  <circle cx="600" cy="750" r="408.00000000000006" fill="url(#rim)"/>
  <circle cx="600" cy="750" r="408.00000000000006" fill="none" stroke="#A8893F" stroke-width="1.5" opacity="0.18"/>

  <!-- pudding surface -->
  <circle cx="600" cy="750" r="346.8" fill="url(#pudding)"/>
  <!-- subtle highlight -->
  <ellipse cx="513.3" cy="663.3" rx="190.7" ry="121.4" fill="#FFFFFE" opacity="0.35"/>

  <!-- garnish -->
  <circle cx="588.9" cy="889.2" r="2.0" fill="#7A5C2E" opacity="0.70"/>
  <circle cx="857.9" cy="705.9" r="2.4" fill="#7A5C2E" opacity="0.70"/>
  <circle cx="586.8" cy="488.0" r="2.3" fill="#FFFEFB" opacity="0.58"/>
  <circle cx="555.0" cy="991.4" r="3.3" fill="#7A5C2E" opacity="0.62"/>
  <circle cx="759.9" cy="920.3" r="4.5" fill="#FFFEFB" opacity="0.85"/>
  <circle cx="407.2" cy="840.4" r="3.0" fill="#FFFEFB" opacity="0.90"/>
  <circle cx="706.4" cy="847.8" r="5.8" fill="#3D2817" opacity="0.64"/>
  <circle cx="489.9" cy="732.8" r="3.7" fill="#7A5C2E" opacity="0.64"/>
  <circle cx="361.5" cy="646.2" r="4.1" fill="#3D2817" opacity="0.93"/>
  <circle cx="726.5" cy="841.0" r="3.6" fill="#FFFEFB" opacity="0.91"/>
  <circle cx="737.6" cy="524.7" r="2.9" fill="#7A5C2E" opacity="0.69"/>
  <circle cx="600.2" cy="656.1" r="5.0" fill="#7A5C2E" opacity="0.58"/>
  <circle cx="765.4" cy="576.7" r="2.5" fill="#FFFEFB" opacity="0.91"/>
  <circle cx="572.1" cy="617.8" r="5.7" fill="#7A5C2E" opacity="0.71"/>
  <circle cx="496.0" cy="984.3" r="4.3" fill="#7A5C2E" opacity="0.94"/>
  <circle cx="549.5" cy="964.8" r="4.9" fill="#3D2817" opacity="0.78"/>
  <circle cx="717.3" cy="952.0" r="4.9" fill="#FFFEFB" opacity="0.85"/>
  <circle cx="591.3" cy="583.5" r="2.9" fill="#7A5C2E" opacity="0.63"/>
  <circle cx="696.1" cy="976.5" r="2.7" fill="#7A5C2E" opacity="0.70"/>
  <circle cx="514.1" cy="729.3" r="5.5" fill="#3D2817" opacity="0.84"/>
  <circle cx="476.4" cy="981.4" r="4.8" fill="#3D2817" opacity="0.95"/>
  <circle cx="732.2" cy="824.9" r="2.6" fill="#FFFEFB" opacity="0.64"/>
  <circle cx="500.2" cy="672.3" r="3.7" fill="#FFFEFB" opacity="0.91"/>
  <circle cx="426.3" cy="752.4" r="4.8" fill="#3D2817" opacity="0.70"/>
  <circle cx="773.0" cy="943.5" r="4.9" fill="#3D2817" opacity="0.84"/>
  <circle cx="716.1" cy="686.3" r="5.6" fill="#FFFEFB" opacity="0.79"/>
  <circle cx="441.5" cy="880.0" r="4.0" fill="#7A5C2E" opacity="0.75"/>
  <circle cx="785.2" cy="886.2" r="4.0" fill="#7A5C2E" opacity="0.89"/>
  <circle cx="655.6" cy="730.9" r="5.3" fill="#FFFEFB" opacity="0.55"/>
  <circle cx="815.3" cy="699.2" r="2.2" fill="#7A5C2E" opacity="0.61"/>
  <circle cx="577.4" cy="960.2" r="5.6" fill="#7A5C2E" opacity="0.77"/>
  <circle cx="714.2" cy="901.8" r="4.7" fill="#FFFEFB" opacity="0.92"/>

  

  <!-- grain overlay -->
  <rect width="1200" height="1500" filter="url(#grain)" opacity="0.5"/>

  
</svg>