<?xml version="1.0" encoding="UTF-8"?>
<svg xmlns="http://www.w3.org/2000/svg" viewBox="0 0 1200 1500" preserveAspectRatio="xMidYMid slice">
  <defs>
    <radialGradient id="bg" cx="50%" cy="38%" r="80%">
      <stop offset="0%" stop-color="#E8DCC4"/>
      <stop offset="100%" stop-color="#A8893F"/>
    </radialGradient>
    <radialGradient id="rim" cx="50%" cy="45%" r="65%">
      <stop offset="0%" stop-color="#F2E4C6"/>
      <stop offset="100%" stop-color="#C9A961"/>
    </radialGradient>
    <radialGradient id="pudding" cx="50%" cy="42%" r="60%">
      <stop offset="0%" stop-color="#7A4B2A"/>
      <stop offset="100%" stop-color="#3D2817"/>
    </radialGradient>
    <filter id="soft" x="-20%" y="-20%" width="140%" height="140%">
      <feGaussianBlur stdDeviation="2"/>
    </filter>
    <filter id="grain" x="0" y="0" width="100%" height="100%">
      <feTurbulence type="fractalNoise" baseFrequency="0.85" numOctaves="2" seed="44"/>
      <feColorMatrix values="0 0 0 0 0.2  0 0 0 0 0.15  0 0 0 0 0.1  0 0 0 0.08 0"/>
      <feComposite in2="SourceGraphic" operator="in"/>
    </filter>
  </defs>

  <rect width="1200" height="1500" fill="url(#bg)"/>
  <line x1="0" y1="1170.0" x2="1200" y2="1172.0" stroke="#3D2817" stroke-width="1" opacity="0.05"/>
  <line x1="0" y1="1200.0" x2="1200" y2="1202.0" stroke="#3D2817" stroke-width="1" opacity="0.05"/>
  <line x1="0" y1="1230.0" x2="1200" y2="1232.0" stroke="#3D2817" stroke-width="1" opacity="0.06"/>
  <line x1="0" y1="1260.0" x2="1200" y2="1262.0" stroke="#3D2817" stroke-width="1" opacity="0.08"/>
  <line x1="0" y1="1290.0" x2="1200" y2="1292.0" stroke="#3D2817" stroke-width="1" opacity="0.08"/>
  <line x1="0" y1="1320.0" x2="1200" y2="1322.0" stroke="#3D2817" stroke-width="1" opacity="0.04"/>
  <line x1="0" y1="1350.0" x2="1200" y2="1352.0" stroke="#3D2817" stroke-width="1" opacity="0.07"/>
  <line x1="0" y1="1380.0" x2="1200" y2="1382.0" stroke="#3D2817" stroke-width="1" opacity="0.08"/>
  <line x1="0" y1="1410.0" x2="1200" y2="1412.0" stroke="#3D2817" stroke-width="1" opacity="0.05"/>
  <line x1="0" y1="1440.0" x2="1200" y2="1442.0" stroke="#3D2817" stroke-width="1" opacity="0.09"/>
  <line x1="0" y1="1470.0" x2="1200" y2="1472.0" stroke="#3D2817" stroke-width="1" opacity="0.06"/>
  <line x1="0" y1="1500.0" x2="1200" y2="1502.0" stroke="#3D2817" stroke-width="1" opacity="0.07"/>
  <line x1="0" y1="1530.0" x2="1200" y2="1532.0" stroke="#3D2817" stroke-width="1" opacity="0.08"/>
  <line x1="0" y1="1560.0" x2="1200" y2="1562.0" stroke="#3D2817" stroke-width="1" opacity="0.06"/>

  <!-- table shadow under bowl -->
  <ellipse cx="600" cy="1137.6" rx="428.4" ry="73.4" fill="#3D2817" opacity="0.12" filter="url(#soft)"/>

  <!-- bowl outer rim -->
  <circle cx="600" cy="750" r="420.0" fill="#FAF7F2" opacity="0.55"/>
  <circle cx="600" cy="750" r="408.00000000000006" fill="url(#rim)"/>
  <circle cx="600" cy="750" r="408.00000000000006" fill="none" stroke="#A8893F" stroke-width="1.5" opacity="0.18"/>

  <!-- pudding surface -->
  <circle cx="600" cy="750" r="346.8" fill="url(#pudding)"/>
  <!-- subtle highlight -->
  <ellipse cx="513.3" cy="663.3" rx="190.7" ry="121.4" fill="#FFFFFE" opacity="0.35"/>

  <!-- garnish -->
  <circle cx="597.0" cy="890.8" r="5.8" fill="#FFFEFB" opacity="0.83"/>
  <circle cx="437.5" cy="730.1" r="5.8" fill="#5A3E26" opacity="0.59"/>
  <circle cx="618.4" cy="497.7" r="4.4" fill="#5A3E26" opacity="0.57"/>
  <circle cx="794.9" cy="776.0" r="5.9" fill="#C9A961" opacity="0.82"/>
  <circle cx="748.7" cy="688.4" r="5.6" fill="#C9A961" opacity="0.62"/>
  <circle cx="551.2" cy="595.0" r="3.5" fill="#FFFEFB" opacity="0.67"/>
  <circle cx="687.6" cy="986.3" r="5.0" fill="#FFFEFB" opacity="0.74"/>
  <circle cx="624.0" cy="896.6" r="3.4" fill="#C9A961" opacity="0.55"/>
  <circle cx="464.5" cy="786.0" r="2.9" fill="#FFFEFB" opacity="0.81"/>
  <circle cx="756.1" cy="894.1" r="2.3" fill="#C9A961" opacity="0.59"/>
  <circle cx="363.0" cy="590.7" r="2.5" fill="#5A3E26" opacity="0.92"/>
  <circle cx="522.8" cy="504.8" r="3.3" fill="#C9A961" opacity="0.90"/>
  <circle cx="468.0" cy="619.6" r="2.5" fill="#FFFEFB" opacity="0.85"/>
  <circle cx="611.3" cy="887.7" r="5.6" fill="#FFFEFB" opacity="0.81"/>
  <circle cx="387.9" cy="789.8" r="5.3" fill="#C9A961" opacity="0.60"/>
  <circle cx="692.2" cy="595.8" r="5.7" fill="#FFFEFB" opacity="0.69"/>
  <circle cx="358.2" cy="899.1" r="5.8" fill="#FFFEFB" opacity="0.62"/>
  <circle cx="831.3" cy="798.4" r="2.1" fill="#5A3E26" opacity="0.69"/>
  <circle cx="358.5" cy="640.2" r="4.3" fill="#C9A961" opacity="0.62"/>
  <circle cx="571.8" cy="620.2" r="5.9" fill="#5A3E26" opacity="0.68"/>
  <circle cx="807.9" cy="794.6" r="4.6" fill="#C9A961" opacity="0.92"/>
  <circle cx="481.8" cy="716.9" r="5.0" fill="#5A3E26" opacity="0.86"/>
  <circle cx="564.9" cy="514.4" r="3.9" fill="#5A3E26" opacity="0.73"/>
  <circle cx="699.8" cy="957.9" r="4.8" fill="#5A3E26" opacity="0.93"/>
  <circle cx="520.1" cy="929.7" r="5.4" fill="#5A3E26" opacity="0.66"/>
  <circle cx="355.0" cy="726.4" r="2.4" fill="#5A3E26" opacity="0.60"/>
  <circle cx="789.9" cy="741.6" r="5.4" fill="#FFFEFB" opacity="0.93"/>
  <circle cx="355.3" cy="809.8" r="5.0" fill="#C9A961" opacity="0.84"/>
  <circle cx="731.2" cy="958.5" r="4.2" fill="#5A3E26" opacity="0.59"/>
  <circle cx="616.9" cy="650.2" r="3.1" fill="#FFFEFB" opacity="0.78"/>
  <circle cx="584.3" cy="888.7" r="3.8" fill="#5A3E26" opacity="0.64"/>
  <circle cx="512.3" cy="874.4" r="2.5" fill="#5A3E26" opacity="0.94"/>

  

  <!-- grain overlay -->
  <rect width="1200" height="1500" filter="url(#grain)" opacity="0.5"/>

  
</svg>