<?xml version="1.0" encoding="UTF-8"?>
<svg xmlns="http://www.w3.org/2000/svg" viewBox="0 0 1200 1500" preserveAspectRatio="xMidYMid slice">
  <defs>
    <radialGradient id="bg" cx="50%" cy="38%" r="80%">
      <stop offset="0%" stop-color="#E5DEC1"/>
      <stop offset="100%" stop-color="#B8B07A"/>
    </radialGradient>
    <radialGradient id="rim" cx="50%" cy="45%" r="65%">
      <stop offset="0%" stop-color="#FFFEFB"/>
      <stop offset="100%" stop-color="#E8DCC4"/>
    </radialGradient>
    <radialGradient id="pudding" cx="50%" cy="42%" r="60%">
      <stop offset="0%" stop-color="#E8E0BD"/>
      <stop offset="100%" stop-color="#B8B07A"/>
    </radialGradient>
    <filter id="soft" x="-20%" y="-20%" width="140%" height="140%">
      <feGaussianBlur stdDeviation="2"/>
    </filter>
    <filter id="grain" x="0" y="0" width="100%" height="100%">
      <feTurbulence type="fractalNoise" baseFrequency="0.85" numOctaves="2" seed="33"/>
      <feColorMatrix values="0 0 0 0 0.2  0 0 0 0 0.15  0 0 0 0 0.1  0 0 0 0.08 0"/>
      <feComposite in2="SourceGraphic" operator="in"/>
    </filter>
  </defs>

  <rect width="1200" height="1500" fill="url(#bg)"/>
  <line x1="0" y1="1170.0" x2="1200" y2="1172.0" stroke="#3D2817" stroke-width="1" opacity="0.08"/>
  <line x1="0" y1="1200.0" x2="1200" y2="1202.0" stroke="#3D2817" stroke-width="1" opacity="0.07"/>
  <line x1="0" y1="1230.0" x2="1200" y2="1232.0" stroke="#3D2817" stroke-width="1" opacity="0.07"/>
  <line x1="0" y1="1260.0" x2="1200" y2="1262.0" stroke="#3D2817" stroke-width="1" opacity="0.05"/>
  <line x1="0" y1="1290.0" x2="1200" y2="1292.0" stroke="#3D2817" stroke-width="1" opacity="0.08"/>
  <line x1="0" y1="1320.0" x2="1200" y2="1322.0" stroke="#3D2817" stroke-width="1" opacity="0.04"/>
  <line x1="0" y1="1350.0" x2="1200" y2="1352.0" stroke="#3D2817" stroke-width="1" opacity="0.06"/>
  <line x1="0" y1="1380.0" x2="1200" y2="1382.0" stroke="#3D2817" stroke-width="1" opacity="0.05"/>
  <line x1="0" y1="1410.0" x2="1200" y2="1412.0" stroke="#3D2817" stroke-width="1" opacity="0.05"/>
  <line x1="0" y1="1440.0" x2="1200" y2="1442.0" stroke="#3D2817" stroke-width="1" opacity="0.06"/>
  <line x1="0" y1="1470.0" x2="1200" y2="1472.0" stroke="#3D2817" stroke-width="1" opacity="0.08"/>
  <line x1="0" y1="1500.0" x2="1200" y2="1502.0" stroke="#3D2817" stroke-width="1" opacity="0.05"/>
  <line x1="0" y1="1530.0" x2="1200" y2="1532.0" stroke="#3D2817" stroke-width="1" opacity="0.05"/>
  <line x1="0" y1="1560.0" x2="1200" y2="1562.0" stroke="#3D2817" stroke-width="1" opacity="0.06"/>

  <!-- table shadow under bowl -->
  <ellipse cx="600" cy="1137.6" rx="428.4" ry="73.4" fill="#3D2817" opacity="0.12" filter="url(#soft)"/>

  <!-- bowl outer rim -->
  <circle cx="600" cy="750" r="420.0" fill="#FAF7F2" opacity="0.55"/>
  <circle cx="600" cy="750" r="408.00000000000006" fill="url(#rim)"/>
  <circle cx="600" cy="750" r="408.00000000000006" fill="none" stroke="#A8893F" stroke-width="1.5" opacity="0.18"/>

  <!-- pudding surface -->
  <circle cx="600" cy="750" r="346.8" fill="url(#pudding)"/>
  <!-- subtle highlight -->
  <ellipse cx="513.3" cy="663.3" rx="190.7" ry="121.4" fill="#FFFFFE" opacity="0.35"/>

  <!-- garnish -->
  <circle cx="601.1" cy="891.4" r="3.7" fill="#C49A6C" opacity="0.70"/>
  <circle cx="536.3" cy="945.8" r="5.5" fill="#5A6B2F" opacity="0.74"/>
  <circle cx="621.1" cy="593.9" r="5.4" fill="#5A6B2F" opacity="0.77"/>
  <circle cx="804.2" cy="606.0" r="5.3" fill="#5A6B2F" opacity="0.91"/>
  <circle cx="551.4" cy="830.4" r="4.1" fill="#7A8B3F" opacity="0.90"/>
  <circle cx="744.8" cy="554.5" r="5.7" fill="#5A6B2F" opacity="0.75"/>
  <circle cx="588.9" cy="648.6" r="2.6" fill="#7A8B3F" opacity="0.59"/>
  <circle cx="845.1" cy="866.7" r="3.2" fill="#7A8B3F" opacity="0.71"/>
  <circle cx="442.9" cy="858.1" r="2.2" fill="#5A6B2F" opacity="0.55"/>
  <circle cx="686.3" cy="840.0" r="5.7" fill="#5A6B2F" opacity="0.63"/>
  <circle cx="385.6" cy="768.8" r="4.3" fill="#5A6B2F" opacity="0.63"/>
  <circle cx="662.9" cy="878.3" r="2.4" fill="#5A6B2F" opacity="0.86"/>
  <circle cx="442.9" cy="737.6" r="2.5" fill="#7A8B3F" opacity="0.62"/>
  <circle cx="751.9" cy="747.6" r="3.5" fill="#C49A6C" opacity="0.66"/>
  <circle cx="864.0" cy="822.5" r="5.8" fill="#5A6B2F" opacity="0.64"/>
  <circle cx="470.5" cy="659.9" r="4.1" fill="#5A6B2F" opacity="0.65"/>
  <circle cx="695.0" cy="762.7" r="4.3" fill="#5A6B2F" opacity="0.91"/>
  <circle cx="535.3" cy="618.9" r="5.6" fill="#5A6B2F" opacity="0.91"/>
  <circle cx="584.5" cy="910.0" r="5.1" fill="#C49A6C" opacity="0.59"/>
  <circle cx="506.0" cy="978.5" r="4.1" fill="#7A8B3F" opacity="0.80"/>
  <circle cx="811.1" cy="596.1" r="2.6" fill="#C49A6C" opacity="0.71"/>
  <circle cx="638.8" cy="538.6" r="2.2" fill="#7A8B3F" opacity="0.57"/>
  <circle cx="615.8" cy="687.9" r="4.0" fill="#C49A6C" opacity="0.64"/>
  <circle cx="779.1" cy="778.1" r="2.8" fill="#C49A6C" opacity="0.85"/>
  <circle cx="737.8" cy="654.8" r="5.7" fill="#C49A6C" opacity="0.56"/>
  <circle cx="481.9" cy="989.9" r="2.8" fill="#5A6B2F" opacity="0.91"/>
  <circle cx="521.1" cy="991.5" r="2.1" fill="#7A8B3F" opacity="0.63"/>
  <circle cx="704.2" cy="857.9" r="5.5" fill="#C49A6C" opacity="0.81"/>
  <circle cx="557.7" cy="967.5" r="5.6" fill="#7A8B3F" opacity="0.61"/>
  <circle cx="482.5" cy="512.8" r="3.6" fill="#C49A6C" opacity="0.67"/>
  <circle cx="609.6" cy="667.6" r="4.8" fill="#7A8B3F" opacity="0.57"/>
  <circle cx="370.6" cy="840.5" r="5.4" fill="#7A8B3F" opacity="0.55"/>

  

  <!-- grain overlay -->
  <rect width="1200" height="1500" filter="url(#grain)" opacity="0.5"/>

  
</svg>