<?xml version="1.0" encoding="UTF-8"?>
<svg xmlns="http://www.w3.org/2000/svg" viewBox="0 0 1400 1750" preserveAspectRatio="xMidYMid slice">
  <defs>
    <radialGradient id="bg" cx="50%" cy="38%" r="80%">
      <stop offset="0%" stop-color="#E5DEC1"/>
      <stop offset="100%" stop-color="#B8B07A"/>
    </radialGradient>
    <radialGradient id="rim" cx="50%" cy="45%" r="65%">
      <stop offset="0%" stop-color="#FFFEFB"/>
      <stop offset="100%" stop-color="#E8DCC4"/>
    </radialGradient>
    <radialGradient id="pudding" cx="50%" cy="42%" r="60%">
      <stop offset="0%" stop-color="#E8E0BD"/>
      <stop offset="100%" stop-color="#B8B07A"/>
    </radialGradient>
    <filter id="soft" x="-20%" y="-20%" width="140%" height="140%">
      <feGaussianBlur stdDeviation="2"/>
    </filter>
    <filter id="grain" x="0" y="0" width="100%" height="100%">
      <feTurbulence type="fractalNoise" baseFrequency="0.85" numOctaves="2" seed="33"/>
      <feColorMatrix values="0 0 0 0 0.2  0 0 0 0 0.15  0 0 0 0 0.1  0 0 0 0.08 0"/>
      <feComposite in2="SourceGraphic" operator="in"/>
    </filter>
  </defs>

  <rect width="1400" height="1750" fill="url(#bg)"/>
  <line x1="0" y1="1365.0" x2="1400" y2="1367.0" stroke="#3D2817" stroke-width="1" opacity="0.08"/>
  <line x1="0" y1="1400.0" x2="1400" y2="1402.0" stroke="#3D2817" stroke-width="1" opacity="0.07"/>
  <line x1="0" y1="1435.0" x2="1400" y2="1437.0" stroke="#3D2817" stroke-width="1" opacity="0.07"/>
  <line x1="0" y1="1470.0" x2="1400" y2="1472.0" stroke="#3D2817" stroke-width="1" opacity="0.05"/>
  <line x1="0" y1="1505.0" x2="1400" y2="1507.0" stroke="#3D2817" stroke-width="1" opacity="0.08"/>
  <line x1="0" y1="1540.0" x2="1400" y2="1542.0" stroke="#3D2817" stroke-width="1" opacity="0.04"/>
  <line x1="0" y1="1575.0" x2="1400" y2="1577.0" stroke="#3D2817" stroke-width="1" opacity="0.06"/>
  <line x1="0" y1="1610.0" x2="1400" y2="1612.0" stroke="#3D2817" stroke-width="1" opacity="0.05"/>
  <line x1="0" y1="1645.0" x2="1400" y2="1647.0" stroke="#3D2817" stroke-width="1" opacity="0.05"/>
  <line x1="0" y1="1680.0" x2="1400" y2="1682.0" stroke="#3D2817" stroke-width="1" opacity="0.06"/>
  <line x1="0" y1="1715.0" x2="1400" y2="1717.0" stroke="#3D2817" stroke-width="1" opacity="0.08"/>
  <line x1="0" y1="1750.0" x2="1400" y2="1752.0" stroke="#3D2817" stroke-width="1" opacity="0.05"/>
  <line x1="0" y1="1785.0" x2="1400" y2="1787.0" stroke="#3D2817" stroke-width="1" opacity="0.05"/>
  <line x1="0" y1="1820.0" x2="1400" y2="1822.0" stroke="#3D2817" stroke-width="1" opacity="0.06"/>

  <!-- table shadow under bowl -->
  <ellipse cx="700" cy="1327.2" rx="499.8" ry="85.7" fill="#3D2817" opacity="0.12" filter="url(#soft)"/>

  <!-- bowl outer rim -->
  <circle cx="700" cy="875" r="488.0" fill="#FAF7F2" opacity="0.55"/>
  <circle cx="700" cy="875" r="476.00000000000006" fill="url(#rim)"/>
  <circle cx="700" cy="875" r="476.00000000000006" fill="none" stroke="#A8893F" stroke-width="1.5" opacity="0.18"/>

  <!-- pudding surface -->
  <circle cx="700" cy="875" r="404.6" fill="url(#pudding)"/>
  <!-- subtle highlight -->
  <ellipse cx="598.9" cy="773.9" rx="222.5" ry="141.6" fill="#FFFFFE" opacity="0.35"/>

  <!-- garnish -->
  <circle cx="701.3" cy="1039.9" r="3.7" fill="#C49A6C" opacity="0.70"/>
  <circle cx="625.7" cy="1103.4" r="5.5" fill="#5A6B2F" opacity="0.74"/>
  <circle cx="724.6" cy="692.9" r="5.4" fill="#5A6B2F" opacity="0.77"/>
  <circle cx="938.2" cy="707.0" r="5.3" fill="#5A6B2F" opacity="0.91"/>
  <circle cx="643.3" cy="968.8" r="4.1" fill="#7A8B3F" opacity="0.90"/>
  <circle cx="869.0" cy="646.9" r="5.7" fill="#5A6B2F" opacity="0.75"/>
  <circle cx="687.0" cy="756.7" r="2.6" fill="#7A8B3F" opacity="0.59"/>
  <circle cx="985.9" cy="1011.2" r="3.2" fill="#7A8B3F" opacity="0.71"/>
  <circle cx="516.7" cy="1001.2" r="2.2" fill="#5A6B2F" opacity="0.55"/>
  <circle cx="800.6" cy="980.0" r="5.7" fill="#5A6B2F" opacity="0.63"/>
  <circle cx="449.9" cy="896.9" r="4.3" fill="#5A6B2F" opacity="0.63"/>
  <circle cx="773.4" cy="1024.7" r="2.4" fill="#5A6B2F" opacity="0.86"/>
  <circle cx="516.7" cy="860.5" r="2.5" fill="#7A8B3F" opacity="0.62"/>
  <circle cx="877.2" cy="872.2" r="3.5" fill="#C49A6C" opacity="0.66"/>
  <circle cx="1008.0" cy="959.6" r="5.8" fill="#5A6B2F" opacity="0.64"/>
  <circle cx="548.9" cy="769.9" r="4.1" fill="#5A6B2F" opacity="0.65"/>
  <circle cx="810.8" cy="889.9" r="4.3" fill="#5A6B2F" opacity="0.91"/>
  <circle cx="624.6" cy="722.0" r="5.6" fill="#5A6B2F" opacity="0.91"/>
  <circle cx="681.9" cy="1061.6" r="5.1" fill="#C49A6C" opacity="0.59"/>
  <circle cx="590.3" cy="1141.6" r="4.1" fill="#7A8B3F" opacity="0.80"/>
  <circle cx="946.2" cy="695.5" r="2.6" fill="#C49A6C" opacity="0.71"/>
  <circle cx="745.2" cy="628.4" r="2.2" fill="#7A8B3F" opacity="0.57"/>
  <circle cx="718.4" cy="802.5" r="4.0" fill="#C49A6C" opacity="0.64"/>
  <circle cx="908.9" cy="907.8" r="2.8" fill="#C49A6C" opacity="0.85"/>
  <circle cx="860.8" cy="763.9" r="5.7" fill="#C49A6C" opacity="0.56"/>
  <circle cx="562.2" cy="1154.8" r="2.8" fill="#5A6B2F" opacity="0.91"/>
  <circle cx="607.9" cy="1156.8" r="2.1" fill="#7A8B3F" opacity="0.63"/>
  <circle cx="821.5" cy="1000.8" r="5.5" fill="#C49A6C" opacity="0.81"/>
  <circle cx="650.7" cy="1128.7" r="5.6" fill="#7A8B3F" opacity="0.61"/>
  <circle cx="562.9" cy="598.3" r="3.6" fill="#C49A6C" opacity="0.67"/>
  <circle cx="711.1" cy="778.8" r="4.8" fill="#7A8B3F" opacity="0.57"/>
  <circle cx="432.4" cy="980.6" r="5.4" fill="#7A8B3F" opacity="0.55"/>

  
    <g opacity="0.75" transform="translate(985.6 708.4) rotate(35)">
      <ellipse cx="0" cy="0" rx="38" ry="22" fill="#C9A961" opacity="0.85"/>
      <ellipse cx="0" cy="0" rx="30" ry="16" fill="#A8893F" opacity="0.7"/>
      <rect x="-6" y="20" width="12" height="160" rx="6" fill="#C9A961" opacity="0.9"/>
    </g>

  <!-- grain overlay -->
  <rect width="1400" height="1750" filter="url(#grain)" opacity="0.5"/>

  
</svg>