<?xml version="1.0" encoding="UTF-8"?>
<svg xmlns="http://www.w3.org/2000/svg" viewBox="0 0 1400 1400" preserveAspectRatio="xMidYMid slice">
  <defs>
    <radialGradient id="bg" cx="50%" cy="38%" r="80%">
      <stop offset="0%" stop-color="#EDDAB8"/>
      <stop offset="100%" stop-color="#C9A961"/>
    </radialGradient>
    <radialGradient id="rim" cx="50%" cy="45%" r="65%">
      <stop offset="0%" stop-color="#FFFEFB"/>
      <stop offset="100%" stop-color="#E8DCC4"/>
    </radialGradient>
    <radialGradient id="pudding" cx="50%" cy="42%" r="60%">
      <stop offset="0%" stop-color="#EFD4A0"/>
      <stop offset="100%" stop-color="#C28E48"/>
    </radialGradient>
    <filter id="soft" x="-20%" y="-20%" width="140%" height="140%">
      <feGaussianBlur stdDeviation="2"/>
    </filter>
    <filter id="grain" x="0" y="0" width="100%" height="100%">
      <feTurbulence type="fractalNoise" baseFrequency="0.85" numOctaves="2" seed="22"/>
      <feColorMatrix values="0 0 0 0 0.2  0 0 0 0 0.15  0 0 0 0 0.1  0 0 0 0.08 0"/>
      <feComposite in2="SourceGraphic" operator="in"/>
    </filter>
  </defs>

  <rect width="1400" height="1400" fill="url(#bg)"/>
  <line x1="0" y1="1092.0" x2="1400" y2="1094.0" stroke="#3D2817" stroke-width="1" opacity="0.06"/>
  <line x1="0" y1="1120.0" x2="1400" y2="1122.0" stroke="#3D2817" stroke-width="1" opacity="0.07"/>
  <line x1="0" y1="1148.0" x2="1400" y2="1150.0" stroke="#3D2817" stroke-width="1" opacity="0.05"/>
  <line x1="0" y1="1176.0" x2="1400" y2="1178.0" stroke="#3D2817" stroke-width="1" opacity="0.08"/>
  <line x1="0" y1="1204.0" x2="1400" y2="1206.0" stroke="#3D2817" stroke-width="1" opacity="0.06"/>
  <line x1="0" y1="1232.0" x2="1400" y2="1234.0" stroke="#3D2817" stroke-width="1" opacity="0.04"/>
  <line x1="0" y1="1260.0" x2="1400" y2="1262.0" stroke="#3D2817" stroke-width="1" opacity="0.07"/>
  <line x1="0" y1="1288.0" x2="1400" y2="1290.0" stroke="#3D2817" stroke-width="1" opacity="0.06"/>
  <line x1="0" y1="1316.0" x2="1400" y2="1318.0" stroke="#3D2817" stroke-width="1" opacity="0.04"/>
  <line x1="0" y1="1344.0" x2="1400" y2="1346.0" stroke="#3D2817" stroke-width="1" opacity="0.06"/>
  <line x1="0" y1="1372.0" x2="1400" y2="1374.0" stroke="#3D2817" stroke-width="1" opacity="0.07"/>
  <line x1="0" y1="1400.0" x2="1400" y2="1402.0" stroke="#3D2817" stroke-width="1" opacity="0.07"/>
  <line x1="0" y1="1428.0" x2="1400" y2="1430.0" stroke="#3D2817" stroke-width="1" opacity="0.05"/>
  <line x1="0" y1="1456.0" x2="1400" y2="1458.0" stroke="#3D2817" stroke-width="1" opacity="0.07"/>

  <!-- table shadow under bowl -->
  <ellipse cx="700" cy="1152.2" rx="499.8" ry="85.7" fill="#3D2817" opacity="0.12" filter="url(#soft)"/>

  <!-- bowl outer rim -->
  <circle cx="700" cy="700" r="488.0" fill="#FAF7F2" opacity="0.55"/>
  <circle cx="700" cy="700" r="476.00000000000006" fill="url(#rim)"/>
  <circle cx="700" cy="700" r="476.00000000000006" fill="none" stroke="#A8893F" stroke-width="1.5" opacity="0.18"/>

  <!-- pudding surface -->
  <circle cx="700" cy="700" r="404.6" fill="url(#pudding)"/>
  <!-- subtle highlight -->
  <ellipse cx="598.9" cy="598.9" rx="222.5" ry="141.6" fill="#FFFFFE" opacity="0.35"/>

  <!-- garnish -->
  <circle cx="706.1" cy="865.5" r="5.5" fill="#5A3E26" opacity="0.57"/>
  <circle cx="981.7" cy="824.8" r="5.2" fill="#FFFEFB" opacity="0.89"/>
  <circle cx="755.3" cy="421.0" r="2.4" fill="#FFFEFB" opacity="0.56"/>
  <circle cx="711.3" cy="612.7" r="4.6" fill="#FFFEFB" opacity="0.61"/>
  <circle cx="656.0" cy="398.6" r="2.6" fill="#FFFEFB" opacity="0.79"/>
  <circle cx="840.7" cy="688.0" r="4.0" fill="#3D2817" opacity="0.84"/>
  <circle cx="671.0" cy="906.9" r="4.3" fill="#FFFEFB" opacity="0.84"/>
  <circle cx="907.0" cy="604.1" r="3.0" fill="#FFFEFB" opacity="0.87"/>
  <circle cx="550.2" cy="916.3" r="5.6" fill="#3D2817" opacity="0.70"/>
  <circle cx="892.2" cy="927.4" r="5.0" fill="#FFFEFB" opacity="0.67"/>
  <circle cx="635.6" cy="763.6" r="2.0" fill="#5A3E26" opacity="0.74"/>
  <circle cx="551.1" cy="484.3" r="5.6" fill="#FFFEFB" opacity="0.82"/>
  <circle cx="597.3" cy="771.7" r="2.6" fill="#FFFEFB" opacity="0.79"/>
  <circle cx="707.4" cy="535.2" r="5.4" fill="#3D2817" opacity="0.91"/>
  <circle cx="588.7" cy="598.4" r="2.3" fill="#FFFEFB" opacity="0.67"/>
  <circle cx="594.4" cy="795.8" r="2.4" fill="#3D2817" opacity="0.60"/>
  <circle cx="593.3" cy="581.2" r="2.7" fill="#3D2817" opacity="0.79"/>
  <circle cx="543.5" cy="966.5" r="5.2" fill="#5A3E26" opacity="0.74"/>
  <circle cx="1007.5" cy="618.3" r="5.9" fill="#3D2817" opacity="0.95"/>
  <circle cx="870.0" cy="581.2" r="2.3" fill="#3D2817" opacity="0.92"/>
  <circle cx="700.2" cy="579.6" r="4.5" fill="#3D2817" opacity="0.90"/>
  <circle cx="793.3" cy="703.3" r="3.4" fill="#FFFEFB" opacity="0.68"/>
  <circle cx="812.8" cy="546.9" r="4.1" fill="#3D2817" opacity="0.55"/>
  <circle cx="756.4" cy="644.8" r="4.7" fill="#5A3E26" opacity="0.77"/>
  <circle cx="558.5" cy="713.8" r="6.0" fill="#5A3E26" opacity="0.87"/>
  <circle cx="809.2" cy="792.9" r="3.2" fill="#5A3E26" opacity="0.81"/>
  <circle cx="544.7" cy="595.4" r="2.9" fill="#FFFEFB" opacity="0.72"/>
  <circle cx="815.3" cy="432.3" r="2.1" fill="#3D2817" opacity="0.78"/>
  <circle cx="505.8" cy="848.1" r="3.1" fill="#3D2817" opacity="0.63"/>
  <circle cx="454.8" cy="558.4" r="4.1" fill="#FFFEFB" opacity="0.95"/>
  <circle cx="664.2" cy="1002.1" r="5.9" fill="#3D2817" opacity="0.90"/>
  <circle cx="576.0" cy="678.6" r="4.3" fill="#3D2817" opacity="0.57"/>
  <circle cx="572.6" cy="967.5" r="4.6" fill="#5A3E26" opacity="0.86"/>
  <circle cx="828.2" cy="770.2" r="4.0" fill="#3D2817" opacity="0.92"/>
  <circle cx="954.6" cy="723.7" r="4.8" fill="#5A3E26" opacity="0.74"/>
  <circle cx="777.9" cy="693.4" r="2.7" fill="#5A3E26" opacity="0.66"/>
  <circle cx="783.9" cy="790.0" r="2.2" fill="#5A3E26" opacity="0.78"/>
  <circle cx="900.9" cy="776.1" r="4.2" fill="#5A3E26" opacity="0.59"/>
  <circle cx="869.9" cy="798.6" r="4.7" fill="#3D2817" opacity="0.91"/>
  <circle cx="771.6" cy="503.9" r="2.0" fill="#5A3E26" opacity="0.79"/>

  
    <g opacity="0.75" transform="translate(985.6 533.4) rotate(35)">
      <ellipse cx="0" cy="0" rx="38" ry="22" fill="#C9A961" opacity="0.85"/>
      <ellipse cx="0" cy="0" rx="30" ry="16" fill="#A8893F" opacity="0.7"/>
      <rect x="-6" y="20" width="12" height="160" rx="6" fill="#C9A961" opacity="0.9"/>
    </g>

  <!-- grain overlay -->
  <rect width="1400" height="1400" filter="url(#grain)" opacity="0.5"/>

  
</svg>