<?xml version="1.0" encoding="UTF-8"?>
<svg xmlns="http://www.w3.org/2000/svg" viewBox="0 0 1400 1750" preserveAspectRatio="xMidYMid slice">
  <defs>
    <radialGradient id="bg" cx="50%" cy="38%" r="80%">
      <stop offset="0%" stop-color="#F2E9D8"/>
      <stop offset="100%" stop-color="#D4C4A8"/>
    </radialGradient>
    <radialGradient id="rim" cx="50%" cy="45%" r="65%">
      <stop offset="0%" stop-color="#FFFEFB"/>
      <stop offset="100%" stop-color="#E8DCC4"/>
    </radialGradient>
    <radialGradient id="pudding" cx="50%" cy="42%" r="60%">
      <stop offset="0%" stop-color="#FBF5E4"/>
      <stop offset="100%" stop-color="#E0CFA8"/>
    </radialGradient>
    <filter id="soft" x="-20%" y="-20%" width="140%" height="140%">
      <feGaussianBlur stdDeviation="2"/>
    </filter>
    <filter id="grain" x="0" y="0" width="100%" height="100%">
      <feTurbulence type="fractalNoise" baseFrequency="0.85" numOctaves="2" seed="66"/>
      <feColorMatrix values="0 0 0 0 0.2  0 0 0 0 0.15  0 0 0 0 0.1  0 0 0 0.08 0"/>
      <feComposite in2="SourceGraphic" operator="in"/>
    </filter>
  </defs>

  <rect width="1400" height="1750" fill="url(#bg)"/>
  <line x1="0" y1="1365.0" x2="1400" y2="1367.0" stroke="#3D2817" stroke-width="1" opacity="0.07"/>
  <line x1="0" y1="1400.0" x2="1400" y2="1402.0" stroke="#3D2817" stroke-width="1" opacity="0.07"/>
  <line x1="0" y1="1435.0" x2="1400" y2="1437.0" stroke="#3D2817" stroke-width="1" opacity="0.04"/>
  <line x1="0" y1="1470.0" x2="1400" y2="1472.0" stroke="#3D2817" stroke-width="1" opacity="0.04"/>
  <line x1="0" y1="1505.0" x2="1400" y2="1507.0" stroke="#3D2817" stroke-width="1" opacity="0.08"/>
  <line x1="0" y1="1540.0" x2="1400" y2="1542.0" stroke="#3D2817" stroke-width="1" opacity="0.06"/>
  <line x1="0" y1="1575.0" x2="1400" y2="1577.0" stroke="#3D2817" stroke-width="1" opacity="0.05"/>
  <line x1="0" y1="1610.0" x2="1400" y2="1612.0" stroke="#3D2817" stroke-width="1" opacity="0.06"/>
  <line x1="0" y1="1645.0" x2="1400" y2="1647.0" stroke="#3D2817" stroke-width="1" opacity="0.08"/>
  <line x1="0" y1="1680.0" x2="1400" y2="1682.0" stroke="#3D2817" stroke-width="1" opacity="0.05"/>
  <line x1="0" y1="1715.0" x2="1400" y2="1717.0" stroke="#3D2817" stroke-width="1" opacity="0.05"/>
  <line x1="0" y1="1750.0" x2="1400" y2="1752.0" stroke="#3D2817" stroke-width="1" opacity="0.04"/>
  <line x1="0" y1="1785.0" x2="1400" y2="1787.0" stroke="#3D2817" stroke-width="1" opacity="0.06"/>
  <line x1="0" y1="1820.0" x2="1400" y2="1822.0" stroke="#3D2817" stroke-width="1" opacity="0.05"/>

  <!-- table shadow under bowl -->
  <ellipse cx="700" cy="1327.2" rx="499.8" ry="85.7" fill="#3D2817" opacity="0.12" filter="url(#soft)"/>

  <!-- bowl outer rim -->
  <circle cx="700" cy="875" r="488.0" fill="#FAF7F2" opacity="0.55"/>
  <circle cx="700" cy="875" r="476.00000000000006" fill="url(#rim)"/>
  <circle cx="700" cy="875" r="476.00000000000006" fill="none" stroke="#A8893F" stroke-width="1.5" opacity="0.18"/>

  <!-- pudding surface -->
  <circle cx="700" cy="875" r="404.6" fill="url(#pudding)"/>
  <!-- subtle highlight -->
  <ellipse cx="598.9" cy="773.9" rx="222.5" ry="141.6" fill="#FFFFFE" opacity="0.35"/>

  <!-- garnish -->
  <circle cx="687.1" cy="1037.4" r="2.0" fill="#7A5C2E" opacity="0.70"/>
  <circle cx="1000.9" cy="823.5" r="2.4" fill="#7A5C2E" opacity="0.70"/>
  <circle cx="684.6" cy="569.4" r="2.3" fill="#FFFEFB" opacity="0.58"/>
  <circle cx="647.5" cy="1156.7" r="3.3" fill="#7A5C2E" opacity="0.62"/>
  <circle cx="886.5" cy="1073.6" r="4.5" fill="#FFFEFB" opacity="0.85"/>
  <circle cx="475.0" cy="980.5" r="3.0" fill="#FFFEFB" opacity="0.90"/>
  <circle cx="824.1" cy="989.1" r="5.8" fill="#3D2817" opacity="0.64"/>
  <circle cx="571.6" cy="855.0" r="3.7" fill="#7A5C2E" opacity="0.64"/>
  <circle cx="421.8" cy="753.9" r="4.1" fill="#3D2817" opacity="0.93"/>
  <circle cx="847.5" cy="981.1" r="3.6" fill="#FFFEFB" opacity="0.91"/>
  <circle cx="860.5" cy="612.2" r="2.9" fill="#7A5C2E" opacity="0.69"/>
  <circle cx="700.3" cy="765.4" r="5.0" fill="#7A5C2E" opacity="0.58"/>
  <circle cx="893.0" cy="672.9" r="2.5" fill="#FFFEFB" opacity="0.91"/>
  <circle cx="667.5" cy="720.8" r="5.7" fill="#7A5C2E" opacity="0.71"/>
  <circle cx="578.6" cy="1148.3" r="4.3" fill="#7A5C2E" opacity="0.94"/>
  <circle cx="641.1" cy="1125.6" r="4.9" fill="#3D2817" opacity="0.78"/>
  <circle cx="836.8" cy="1110.6" r="4.9" fill="#FFFEFB" opacity="0.85"/>
  <circle cx="689.8" cy="680.7" r="2.9" fill="#7A5C2E" opacity="0.63"/>
  <circle cx="812.1" cy="1139.3" r="2.7" fill="#7A5C2E" opacity="0.70"/>
  <circle cx="599.8" cy="850.9" r="5.5" fill="#3D2817" opacity="0.84"/>
  <circle cx="555.7" cy="1145.0" r="4.8" fill="#3D2817" opacity="0.95"/>
  <circle cx="854.3" cy="962.4" r="2.6" fill="#FFFEFB" opacity="0.64"/>
  <circle cx="583.5" cy="784.3" r="3.7" fill="#FFFEFB" opacity="0.91"/>
  <circle cx="497.3" cy="877.8" r="4.8" fill="#3D2817" opacity="0.70"/>
  <circle cx="901.8" cy="1100.8" r="4.9" fill="#3D2817" opacity="0.84"/>
  <circle cx="835.4" cy="800.7" r="5.6" fill="#FFFEFB" opacity="0.79"/>
  <circle cx="515.0" cy="1026.7" r="4.0" fill="#7A5C2E" opacity="0.75"/>
  <circle cx="916.0" cy="1033.9" r="4.0" fill="#7A5C2E" opacity="0.89"/>
  <circle cx="764.9" cy="852.7" r="5.3" fill="#FFFEFB" opacity="0.55"/>
  <circle cx="951.2" cy="815.7" r="2.2" fill="#7A5C2E" opacity="0.61"/>
  <circle cx="673.7" cy="1120.2" r="5.6" fill="#7A5C2E" opacity="0.77"/>
  <circle cx="833.2" cy="1052.1" r="4.7" fill="#FFFEFB" opacity="0.92"/>
  <circle cx="810.7" cy="1120.2" r="3.4" fill="#7A5C2E" opacity="0.80"/>
  <circle cx="744.1" cy="887.2" r="2.3" fill="#7A5C2E" opacity="0.57"/>
  <circle cx="996.4" cy="798.6" r="2.0" fill="#3D2817" opacity="0.84"/>
  <circle cx="587.2" cy="1116.7" r="4.0" fill="#FFFEFB" opacity="0.64"/>
  <circle cx="429.8" cy="944.1" r="3.1" fill="#FFFEFB" opacity="0.70"/>
  <circle cx="493.9" cy="638.9" r="2.4" fill="#3D2817" opacity="0.91"/>

  

  <!-- grain overlay -->
  <rect width="1400" height="1750" filter="url(#grain)" opacity="0.5"/>

  
</svg>