<?xml version="1.0" encoding="UTF-8"?>
<svg xmlns="http://www.w3.org/2000/svg" viewBox="0 0 1400 1400" preserveAspectRatio="xMidYMid slice">
  <defs>
    <radialGradient id="bg" cx="50%" cy="38%" r="80%">
      <stop offset="0%" stop-color="#EDDAB0"/>
      <stop offset="100%" stop-color="#C49A6C"/>
    </radialGradient>
    <radialGradient id="rim" cx="50%" cy="45%" r="65%">
      <stop offset="0%" stop-color="#FFFEFB"/>
      <stop offset="100%" stop-color="#E8DCC4"/>
    </radialGradient>
    <radialGradient id="pudding" cx="50%" cy="42%" r="60%">
      <stop offset="0%" stop-color="#F2D88C"/>
      <stop offset="100%" stop-color="#C9A961"/>
    </radialGradient>
    <filter id="soft" x="-20%" y="-20%" width="140%" height="140%">
      <feGaussianBlur stdDeviation="2"/>
    </filter>
    <filter id="grain" x="0" y="0" width="100%" height="100%">
      <feTurbulence type="fractalNoise" baseFrequency="0.85" numOctaves="2" seed="55"/>
      <feColorMatrix values="0 0 0 0 0.2  0 0 0 0 0.15  0 0 0 0 0.1  0 0 0 0.08 0"/>
      <feComposite in2="SourceGraphic" operator="in"/>
    </filter>
  </defs>

  <rect width="1400" height="1400" fill="url(#bg)"/>
  <line x1="0" y1="1092.0" x2="1400" y2="1094.0" stroke="#3D2817" stroke-width="1" opacity="0.06"/>
  <line x1="0" y1="1120.0" x2="1400" y2="1122.0" stroke="#3D2817" stroke-width="1" opacity="0.07"/>
  <line x1="0" y1="1148.0" x2="1400" y2="1150.0" stroke="#3D2817" stroke-width="1" opacity="0.05"/>
  <line x1="0" y1="1176.0" x2="1400" y2="1178.0" stroke="#3D2817" stroke-width="1" opacity="0.08"/>
  <line x1="0" y1="1204.0" x2="1400" y2="1206.0" stroke="#3D2817" stroke-width="1" opacity="0.09"/>
  <line x1="0" y1="1232.0" x2="1400" y2="1234.0" stroke="#3D2817" stroke-width="1" opacity="0.09"/>
  <line x1="0" y1="1260.0" x2="1400" y2="1262.0" stroke="#3D2817" stroke-width="1" opacity="0.07"/>
  <line x1="0" y1="1288.0" x2="1400" y2="1290.0" stroke="#3D2817" stroke-width="1" opacity="0.08"/>
  <line x1="0" y1="1316.0" x2="1400" y2="1318.0" stroke="#3D2817" stroke-width="1" opacity="0.07"/>
  <line x1="0" y1="1344.0" x2="1400" y2="1346.0" stroke="#3D2817" stroke-width="1" opacity="0.09"/>
  <line x1="0" y1="1372.0" x2="1400" y2="1374.0" stroke="#3D2817" stroke-width="1" opacity="0.08"/>
  <line x1="0" y1="1400.0" x2="1400" y2="1402.0" stroke="#3D2817" stroke-width="1" opacity="0.07"/>
  <line x1="0" y1="1428.0" x2="1400" y2="1430.0" stroke="#3D2817" stroke-width="1" opacity="0.07"/>
  <line x1="0" y1="1456.0" x2="1400" y2="1458.0" stroke="#3D2817" stroke-width="1" opacity="0.08"/>

  <!-- table shadow under bowl -->
  <ellipse cx="700" cy="1152.2" rx="499.8" ry="85.7" fill="#3D2817" opacity="0.12" filter="url(#soft)"/>

  <!-- bowl outer rim -->
  <circle cx="700" cy="700" r="488.0" fill="#FAF7F2" opacity="0.55"/>
  <circle cx="700" cy="700" r="476.00000000000006" fill="url(#rim)"/>
  <circle cx="700" cy="700" r="476.00000000000006" fill="none" stroke="#A8893F" stroke-width="1.5" opacity="0.18"/>

  <!-- pudding surface -->
  <circle cx="700" cy="700" r="404.6" fill="url(#pudding)"/>
  <!-- subtle highlight -->
  <ellipse cx="598.9" cy="598.9" rx="222.5" ry="141.6" fill="#FFFFFE" opacity="0.35"/>

  <!-- garnish -->
  <circle cx="691.8" cy="863.4" r="3.9" fill="#C9A961" opacity="0.57"/>
  <circle cx="698.0" cy="628.7" r="2.1" fill="#8B3A1F" opacity="0.85"/>
  <circle cx="702.2" cy="499.3" r="3.4" fill="#5A2E1B" opacity="0.78"/>
  <circle cx="773.2" cy="792.7" r="2.6" fill="#C9A961" opacity="0.72"/>
  <circle cx="463.2" cy="651.8" r="3.1" fill="#5A2E1B" opacity="0.74"/>
  <circle cx="393.0" cy="577.7" r="5.2" fill="#C9A961" opacity="0.58"/>
  <circle cx="564.6" cy="500.2" r="3.4" fill="#C9A961" opacity="0.89"/>
  <circle cx="491.6" cy="888.2" r="3.5" fill="#8B3A1F" opacity="0.80"/>
  <circle cx="658.1" cy="696.9" r="3.5" fill="#8B3A1F" opacity="0.67"/>
  <circle cx="948.2" cy="902.3" r="3.0" fill="#C9A961" opacity="0.95"/>
  <circle cx="651.0" cy="492.6" r="4.7" fill="#8B3A1F" opacity="0.81"/>
  <circle cx="734.0" cy="922.2" r="4.1" fill="#C9A961" opacity="0.94"/>
  <circle cx="696.2" cy="459.6" r="2.5" fill="#C9A961" opacity="0.68"/>
  <circle cx="528.6" cy="721.2" r="3.7" fill="#C9A961" opacity="0.56"/>
  <circle cx="819.9" cy="608.6" r="4.8" fill="#C9A961" opacity="0.57"/>
  <circle cx="936.5" cy="781.3" r="3.3" fill="#5A2E1B" opacity="0.73"/>
  <circle cx="776.5" cy="418.0" r="3.3" fill="#5A2E1B" opacity="0.74"/>
  <circle cx="670.4" cy="722.8" r="2.5" fill="#8B3A1F" opacity="0.86"/>
  <circle cx="843.3" cy="579.1" r="3.5" fill="#8B3A1F" opacity="0.66"/>
  <circle cx="892.3" cy="887.6" r="3.7" fill="#5A2E1B" opacity="0.56"/>
  <circle cx="768.1" cy="832.3" r="2.7" fill="#C9A961" opacity="0.74"/>
  <circle cx="579.5" cy="945.9" r="3.8" fill="#5A2E1B" opacity="0.75"/>
  <circle cx="584.9" cy="507.3" r="3.8" fill="#C9A961" opacity="0.82"/>
  <circle cx="670.7" cy="742.0" r="2.8" fill="#5A2E1B" opacity="0.61"/>
  <circle cx="657.6" cy="441.4" r="5.2" fill="#5A2E1B" opacity="0.75"/>
  <circle cx="650.2" cy="491.7" r="2.0" fill="#5A2E1B" opacity="0.70"/>
  <circle cx="572.0" cy="411.9" r="4.7" fill="#8B3A1F" opacity="0.84"/>
  <circle cx="731.0" cy="564.3" r="4.5" fill="#8B3A1F" opacity="0.86"/>
  <circle cx="1009.6" cy="802.2" r="2.7" fill="#5A2E1B" opacity="0.57"/>
  <circle cx="837.5" cy="560.7" r="2.7" fill="#5A2E1B" opacity="0.90"/>
  <circle cx="722.9" cy="492.3" r="2.7" fill="#5A2E1B" opacity="0.70"/>
  <circle cx="704.8" cy="997.0" r="3.6" fill="#5A2E1B" opacity="0.93"/>
  <circle cx="634.6" cy="390.8" r="3.7" fill="#8B3A1F" opacity="0.82"/>
  <circle cx="990.5" cy="798.5" r="3.7" fill="#5A2E1B" opacity="0.76"/>
  <circle cx="730.0" cy="852.3" r="3.7" fill="#8B3A1F" opacity="0.72"/>
  <circle cx="949.1" cy="674.4" r="5.7" fill="#8B3A1F" opacity="0.85"/>

  

  <!-- grain overlay -->
  <rect width="1400" height="1400" filter="url(#grain)" opacity="0.5"/>

  
</svg>