<?xml version="1.0" encoding="UTF-8"?>
<svg xmlns="http://www.w3.org/2000/svg" viewBox="0 0 1400 1400" preserveAspectRatio="xMidYMid slice">
  <defs>
    <radialGradient id="bg" cx="50%" cy="38%" r="80%">
      <stop offset="0%" stop-color="#E8DCC4"/>
      <stop offset="100%" stop-color="#A8893F"/>
    </radialGradient>
    <radialGradient id="rim" cx="50%" cy="45%" r="65%">
      <stop offset="0%" stop-color="#F2E4C6"/>
      <stop offset="100%" stop-color="#C9A961"/>
    </radialGradient>
    <radialGradient id="pudding" cx="50%" cy="42%" r="60%">
      <stop offset="0%" stop-color="#7A4B2A"/>
      <stop offset="100%" stop-color="#3D2817"/>
    </radialGradient>
    <filter id="soft" x="-20%" y="-20%" width="140%" height="140%">
      <feGaussianBlur stdDeviation="2"/>
    </filter>
    <filter id="grain" x="0" y="0" width="100%" height="100%">
      <feTurbulence type="fractalNoise" baseFrequency="0.85" numOctaves="2" seed="44"/>
      <feColorMatrix values="0 0 0 0 0.2  0 0 0 0 0.15  0 0 0 0 0.1  0 0 0 0.08 0"/>
      <feComposite in2="SourceGraphic" operator="in"/>
    </filter>
  </defs>

  <rect width="1400" height="1400" fill="url(#bg)"/>
  <line x1="0" y1="1092.0" x2="1400" y2="1094.0" stroke="#3D2817" stroke-width="1" opacity="0.06"/>
  <line x1="0" y1="1120.0" x2="1400" y2="1122.0" stroke="#3D2817" stroke-width="1" opacity="0.08"/>
  <line x1="0" y1="1148.0" x2="1400" y2="1150.0" stroke="#3D2817" stroke-width="1" opacity="0.07"/>
  <line x1="0" y1="1176.0" x2="1400" y2="1178.0" stroke="#3D2817" stroke-width="1" opacity="0.05"/>
  <line x1="0" y1="1204.0" x2="1400" y2="1206.0" stroke="#3D2817" stroke-width="1" opacity="0.07"/>
  <line x1="0" y1="1232.0" x2="1400" y2="1234.0" stroke="#3D2817" stroke-width="1" opacity="0.09"/>
  <line x1="0" y1="1260.0" x2="1400" y2="1262.0" stroke="#3D2817" stroke-width="1" opacity="0.07"/>
  <line x1="0" y1="1288.0" x2="1400" y2="1290.0" stroke="#3D2817" stroke-width="1" opacity="0.05"/>
  <line x1="0" y1="1316.0" x2="1400" y2="1318.0" stroke="#3D2817" stroke-width="1" opacity="0.08"/>
  <line x1="0" y1="1344.0" x2="1400" y2="1346.0" stroke="#3D2817" stroke-width="1" opacity="0.05"/>
  <line x1="0" y1="1372.0" x2="1400" y2="1374.0" stroke="#3D2817" stroke-width="1" opacity="0.05"/>
  <line x1="0" y1="1400.0" x2="1400" y2="1402.0" stroke="#3D2817" stroke-width="1" opacity="0.07"/>
  <line x1="0" y1="1428.0" x2="1400" y2="1430.0" stroke="#3D2817" stroke-width="1" opacity="0.06"/>
  <line x1="0" y1="1456.0" x2="1400" y2="1458.0" stroke="#3D2817" stroke-width="1" opacity="0.07"/>

  <!-- table shadow under bowl -->
  <ellipse cx="700" cy="1152.2" rx="499.8" ry="85.7" fill="#3D2817" opacity="0.12" filter="url(#soft)"/>

  <!-- bowl outer rim -->
  <circle cx="700" cy="700" r="488.0" fill="#FAF7F2" opacity="0.55"/>
  <circle cx="700" cy="700" r="476.00000000000006" fill="url(#rim)"/>
  <circle cx="700" cy="700" r="476.00000000000006" fill="none" stroke="#A8893F" stroke-width="1.5" opacity="0.18"/>

  <!-- pudding surface -->
  <circle cx="700" cy="700" r="404.6" fill="url(#pudding)"/>
  <!-- subtle highlight -->
  <ellipse cx="598.9" cy="598.9" rx="222.5" ry="141.6" fill="#FFFFFE" opacity="0.35"/>

  <!-- garnish -->
  <circle cx="696.5" cy="864.2" r="5.8" fill="#FFFEFB" opacity="0.83"/>
  <circle cx="510.4" cy="676.8" r="5.8" fill="#5A3E26" opacity="0.59"/>
  <circle cx="721.4" cy="405.7" r="4.4" fill="#5A3E26" opacity="0.57"/>
  <circle cx="927.4" cy="730.4" r="5.9" fill="#C9A961" opacity="0.82"/>
  <circle cx="873.5" cy="628.1" r="5.6" fill="#C9A961" opacity="0.62"/>
  <circle cx="643.1" cy="519.2" r="3.5" fill="#FFFEFB" opacity="0.67"/>
  <circle cx="802.2" cy="975.7" r="5.0" fill="#FFFEFB" opacity="0.74"/>
  <circle cx="727.9" cy="871.0" r="3.4" fill="#C9A961" opacity="0.55"/>
  <circle cx="541.9" cy="742.0" r="2.9" fill="#FFFEFB" opacity="0.81"/>
  <circle cx="882.2" cy="868.1" r="2.3" fill="#C9A961" opacity="0.59"/>
  <circle cx="423.4" cy="514.1" r="2.5" fill="#5A3E26" opacity="0.92"/>
  <circle cx="610.0" cy="413.9" r="3.3" fill="#C9A961" opacity="0.90"/>
  <circle cx="546.0" cy="547.8" r="2.5" fill="#FFFEFB" opacity="0.85"/>
  <circle cx="713.2" cy="860.6" r="5.6" fill="#FFFEFB" opacity="0.81"/>
  <circle cx="452.5" cy="746.4" r="5.3" fill="#C9A961" opacity="0.60"/>
  <circle cx="807.5" cy="520.1" r="5.7" fill="#FFFEFB" opacity="0.69"/>
  <circle cx="418.0" cy="874.0" r="5.8" fill="#FFFEFB" opacity="0.62"/>
  <circle cx="969.8" cy="756.4" r="2.1" fill="#5A3E26" opacity="0.69"/>
  <circle cx="418.2" cy="571.9" r="4.3" fill="#C9A961" opacity="0.62"/>
  <circle cx="667.1" cy="548.6" r="5.9" fill="#5A3E26" opacity="0.68"/>
  <circle cx="942.5" cy="752.0" r="4.6" fill="#C9A961" opacity="0.92"/>
  <circle cx="562.1" cy="661.4" r="5.0" fill="#5A3E26" opacity="0.86"/>
  <circle cx="659.0" cy="425.1" r="3.9" fill="#5A3E26" opacity="0.73"/>
  <circle cx="816.5" cy="942.6" r="4.8" fill="#5A3E26" opacity="0.93"/>
  <circle cx="606.7" cy="909.6" r="5.4" fill="#5A3E26" opacity="0.66"/>
  <circle cx="414.1" cy="672.4" r="2.4" fill="#5A3E26" opacity="0.60"/>
  <circle cx="921.6" cy="690.2" r="5.4" fill="#FFFEFB" opacity="0.93"/>
  <circle cx="414.5" cy="769.7" r="5.0" fill="#C9A961" opacity="0.84"/>
  <circle cx="853.1" cy="943.3" r="4.2" fill="#5A3E26" opacity="0.59"/>
  <circle cx="719.7" cy="583.6" r="3.1" fill="#FFFEFB" opacity="0.78"/>
  <circle cx="681.7" cy="861.8" r="3.8" fill="#5A3E26" opacity="0.64"/>
  <circle cx="597.7" cy="845.2" r="2.5" fill="#5A3E26" opacity="0.94"/>
  <circle cx="698.3" cy="866.9" r="4.0" fill="#5A3E26" opacity="0.83"/>
  <circle cx="944.5" cy="798.9" r="5.1" fill="#FFFEFB" opacity="0.95"/>
  <circle cx="418.0" cy="722.4" r="5.4" fill="#C9A961" opacity="0.59"/>
  <circle cx="576.8" cy="544.0" r="3.3" fill="#FFFEFB" opacity="0.65"/>
  <circle cx="636.5" cy="892.1" r="2.7" fill="#5A3E26" opacity="0.74"/>
  <circle cx="618.2" cy="800.6" r="3.3" fill="#C9A961" opacity="0.95"/>
  <circle cx="852.9" cy="532.9" r="3.4" fill="#5A3E26" opacity="0.69"/>
  <circle cx="837.3" cy="826.5" r="4.6" fill="#FFFEFB" opacity="0.72"/>
  <circle cx="597.4" cy="844.7" r="3.1" fill="#5A3E26" opacity="0.82"/>
  <circle cx="876.0" cy="488.1" r="5.4" fill="#5A3E26" opacity="0.93"/>
  <circle cx="903.0" cy="490.5" r="3.5" fill="#5A3E26" opacity="0.87"/>
  <circle cx="824.8" cy="931.7" r="4.2" fill="#5A3E26" opacity="0.79"/>
  <circle cx="750.4" cy="774.5" r="4.5" fill="#FFFEFB" opacity="0.59"/>

  

  <!-- grain overlay -->
  <rect width="1400" height="1400" filter="url(#grain)" opacity="0.5"/>

  
</svg>