<?xml version="1.0" encoding="UTF-8"?>
<svg xmlns="http://www.w3.org/2000/svg" viewBox="0 0 1400 1400" preserveAspectRatio="xMidYMid slice">
  <defs>
    <radialGradient id="bg" cx="50%" cy="38%" r="80%">
      <stop offset="0%" stop-color="#F2E9D8"/>
      <stop offset="100%" stop-color="#D4C4A8"/>
    </radialGradient>
    <radialGradient id="rim" cx="50%" cy="45%" r="65%">
      <stop offset="0%" stop-color="#FFFEFB"/>
      <stop offset="100%" stop-color="#E8DCC4"/>
    </radialGradient>
    <radialGradient id="pudding" cx="50%" cy="42%" r="60%">
      <stop offset="0%" stop-color="#FFFCF4"/>
      <stop offset="100%" stop-color="#F0E5CC"/>
    </radialGradient>
    <filter id="soft" x="-20%" y="-20%" width="140%" height="140%">
      <feGaussianBlur stdDeviation="2"/>
    </filter>
    <filter id="grain" x="0" y="0" width="100%" height="100%">
      <feTurbulence type="fractalNoise" baseFrequency="0.85" numOctaves="2" seed="99"/>
      <feColorMatrix values="0 0 0 0 0.2  0 0 0 0 0.15  0 0 0 0 0.1  0 0 0 0.08 0"/>
      <feComposite in2="SourceGraphic" operator="in"/>
    </filter>
  </defs>

  <rect width="1400" height="1400" fill="url(#bg)"/>
  <line x1="0" y1="1092.0" x2="1400" y2="1094.0" stroke="#3D2817" stroke-width="1" opacity="0.08"/>
  <line x1="0" y1="1120.0" x2="1400" y2="1122.0" stroke="#3D2817" stroke-width="1" opacity="0.05"/>
  <line x1="0" y1="1148.0" x2="1400" y2="1150.0" stroke="#3D2817" stroke-width="1" opacity="0.04"/>
  <line x1="0" y1="1176.0" x2="1400" y2="1178.0" stroke="#3D2817" stroke-width="1" opacity="0.09"/>
  <line x1="0" y1="1204.0" x2="1400" y2="1206.0" stroke="#3D2817" stroke-width="1" opacity="0.04"/>
  <line x1="0" y1="1232.0" x2="1400" y2="1234.0" stroke="#3D2817" stroke-width="1" opacity="0.08"/>
  <line x1="0" y1="1260.0" x2="1400" y2="1262.0" stroke="#3D2817" stroke-width="1" opacity="0.05"/>
  <line x1="0" y1="1288.0" x2="1400" y2="1290.0" stroke="#3D2817" stroke-width="1" opacity="0.07"/>
  <line x1="0" y1="1316.0" x2="1400" y2="1318.0" stroke="#3D2817" stroke-width="1" opacity="0.08"/>
  <line x1="0" y1="1344.0" x2="1400" y2="1346.0" stroke="#3D2817" stroke-width="1" opacity="0.08"/>
  <line x1="0" y1="1372.0" x2="1400" y2="1374.0" stroke="#3D2817" stroke-width="1" opacity="0.07"/>
  <line x1="0" y1="1400.0" x2="1400" y2="1402.0" stroke="#3D2817" stroke-width="1" opacity="0.08"/>
  <line x1="0" y1="1428.0" x2="1400" y2="1430.0" stroke="#3D2817" stroke-width="1" opacity="0.05"/>
  <line x1="0" y1="1456.0" x2="1400" y2="1458.0" stroke="#3D2817" stroke-width="1" opacity="0.09"/>

  <!-- table shadow under bowl -->
  <ellipse cx="700" cy="1152.2" rx="499.8" ry="85.7" fill="#3D2817" opacity="0.12" filter="url(#soft)"/>

  <!-- bowl outer rim -->
  <circle cx="700" cy="700" r="488.0" fill="#FAF7F2" opacity="0.55"/>
  <circle cx="700" cy="700" r="476.00000000000006" fill="url(#rim)"/>
  <circle cx="700" cy="700" r="476.00000000000006" fill="none" stroke="#A8893F" stroke-width="1.5" opacity="0.18"/>

  <!-- pudding surface -->
  <circle cx="700" cy="700" r="404.6" fill="url(#pudding)"/>
  <!-- subtle highlight -->
  <ellipse cx="598.9" cy="598.9" rx="222.5" ry="141.6" fill="#FFFFFE" opacity="0.35"/>

  <!-- garnish -->
  <circle cx="673.3" cy="858.9" r="4.4" fill="#A8893F" opacity="0.70"/>
  <circle cx="673.1" cy="668.0" r="3.4" fill="#3D2817" opacity="0.66"/>
  <circle cx="646.0" cy="474.2" r="3.3" fill="#A8893F" opacity="0.79"/>
  <circle cx="525.0" cy="452.7" r="5.3" fill="#3D2817" opacity="0.72"/>
  <circle cx="864.6" cy="642.7" r="5.0" fill="#7B5E2A" opacity="0.80"/>
  <circle cx="893.5" cy="705.3" r="4.2" fill="#7B5E2A" opacity="0.65"/>
  <circle cx="489.3" cy="680.6" r="5.0" fill="#7B5E2A" opacity="0.68"/>
  <circle cx="918.1" cy="671.4" r="4.2" fill="#3D2817" opacity="0.58"/>
  <circle cx="693.9" cy="574.1" r="6.0" fill="#3D2817" opacity="0.90"/>
  <circle cx="892.4" cy="791.9" r="5.5" fill="#3D2817" opacity="0.78"/>
  <circle cx="779.8" cy="851.2" r="5.6" fill="#3D2817" opacity="0.76"/>
  <circle cx="559.3" cy="983.6" r="3.5" fill="#A8893F" opacity="0.69"/>
  <circle cx="729.4" cy="823.6" r="2.4" fill="#3D2817" opacity="0.79"/>
  <circle cx="546.9" cy="754.1" r="4.0" fill="#3D2817" opacity="0.77"/>
  <circle cx="416.6" cy="562.4" r="2.8" fill="#A8893F" opacity="0.84"/>
  <circle cx="732.9" cy="693.2" r="5.8" fill="#3D2817" opacity="0.91"/>
  <circle cx="616.4" cy="861.5" r="5.5" fill="#3D2817" opacity="0.80"/>
  <circle cx="776.6" cy="493.9" r="4.1" fill="#A8893F" opacity="0.76"/>
  <circle cx="829.1" cy="808.0" r="4.4" fill="#7B5E2A" opacity="0.82"/>
  <circle cx="731.2" cy="509.7" r="2.9" fill="#7B5E2A" opacity="0.89"/>
  <circle cx="704.5" cy="387.9" r="3.0" fill="#A8893F" opacity="0.79"/>
  <circle cx="432.8" cy="880.8" r="2.9" fill="#A8893F" opacity="0.71"/>
  <circle cx="515.5" cy="771.0" r="3.3" fill="#7B5E2A" opacity="0.78"/>
  <circle cx="889.2" cy="664.9" r="2.9" fill="#3D2817" opacity="0.94"/>
  <circle cx="545.4" cy="827.9" r="4.1" fill="#7B5E2A" opacity="0.71"/>
  <circle cx="462.9" cy="684.7" r="4.5" fill="#3D2817" opacity="0.68"/>
  <circle cx="559.1" cy="723.2" r="5.8" fill="#A8893F" opacity="0.87"/>
  <circle cx="730.4" cy="715.4" r="2.4" fill="#7B5E2A" opacity="0.57"/>
  <circle cx="527.1" cy="571.5" r="4.9" fill="#3D2817" opacity="0.90"/>
  <circle cx="711.8" cy="845.7" r="4.8" fill="#7B5E2A" opacity="0.56"/>

  
    <g opacity="0.75" transform="translate(985.6 533.4) rotate(35)">
      <ellipse cx="0" cy="0" rx="38" ry="22" fill="#C9A961" opacity="0.85"/>
      <ellipse cx="0" cy="0" rx="30" ry="16" fill="#A8893F" opacity="0.7"/>
      <rect x="-6" y="20" width="12" height="160" rx="6" fill="#C9A961" opacity="0.9"/>
    </g>

  <!-- grain overlay -->
  <rect width="1400" height="1400" filter="url(#grain)" opacity="0.5"/>

  
</svg>