<?xml version="1.0" encoding="UTF-8"?>
<svg xmlns="http://www.w3.org/2000/svg" viewBox="0 0 2400 1600" preserveAspectRatio="xMidYMid slice">
  <defs>
    <radialGradient id="bg" cx="50%" cy="38%" r="80%">
      <stop offset="0%" stop-color="#F2E9D8"/>
      <stop offset="100%" stop-color="#D4C4A8"/>
    </radialGradient>
    <radialGradient id="rim" cx="50%" cy="45%" r="65%">
      <stop offset="0%" stop-color="#FFFEFB"/>
      <stop offset="100%" stop-color="#E8DCC4"/>
    </radialGradient>
    <radialGradient id="pudding" cx="50%" cy="42%" r="60%">
      <stop offset="0%" stop-color="#FFFCF4"/>
      <stop offset="100%" stop-color="#F0E5CC"/>
    </radialGradient>
    <filter id="soft" x="-20%" y="-20%" width="140%" height="140%">
      <feGaussianBlur stdDeviation="2"/>
    </filter>
    <filter id="grain" x="0" y="0" width="100%" height="100%">
      <feTurbulence type="fractalNoise" baseFrequency="0.85" numOctaves="2" seed="11"/>
      <feColorMatrix values="0 0 0 0 0.2  0 0 0 0 0.15  0 0 0 0 0.1  0 0 0 0.08 0"/>
      <feComposite in2="SourceGraphic" operator="in"/>
    </filter>
  </defs>

  <rect width="2400" height="1600" fill="url(#bg)"/>
  <line x1="0" y1="1248.0" x2="2400" y2="1250.0" stroke="#3D2817" stroke-width="1" opacity="0.09"/>
  <line x1="0" y1="1280.0" x2="2400" y2="1282.0" stroke="#3D2817" stroke-width="1" opacity="0.08"/>
  <line x1="0" y1="1312.0" x2="2400" y2="1314.0" stroke="#3D2817" stroke-width="1" opacity="0.05"/>
  <line x1="0" y1="1344.0" x2="2400" y2="1346.0" stroke="#3D2817" stroke-width="1" opacity="0.07"/>
  <line x1="0" y1="1376.0" x2="2400" y2="1378.0" stroke="#3D2817" stroke-width="1" opacity="0.08"/>
  <line x1="0" y1="1408.0" x2="2400" y2="1410.0" stroke="#3D2817" stroke-width="1" opacity="0.05"/>
  <line x1="0" y1="1440.0" x2="2400" y2="1442.0" stroke="#3D2817" stroke-width="1" opacity="0.04"/>
  <line x1="0" y1="1472.0" x2="2400" y2="1474.0" stroke="#3D2817" stroke-width="1" opacity="0.04"/>
  <line x1="0" y1="1504.0" x2="2400" y2="1506.0" stroke="#3D2817" stroke-width="1" opacity="0.07"/>
  <line x1="0" y1="1536.0" x2="2400" y2="1538.0" stroke="#3D2817" stroke-width="1" opacity="0.07"/>
  <line x1="0" y1="1568.0" x2="2400" y2="1570.0" stroke="#3D2817" stroke-width="1" opacity="0.07"/>
  <line x1="0" y1="1600.0" x2="2400" y2="1602.0" stroke="#3D2817" stroke-width="1" opacity="0.07"/>
  <line x1="0" y1="1632.0" x2="2400" y2="1634.0" stroke="#3D2817" stroke-width="1" opacity="0.08"/>
  <line x1="0" y1="1664.0" x2="2400" y2="1666.0" stroke="#3D2817" stroke-width="1" opacity="0.09"/>

  <!-- table shadow under bowl -->
  <ellipse cx="1200" cy="1316.8" rx="571.2" ry="97.9" fill="#3D2817" opacity="0.12" filter="url(#soft)"/>

  <!-- bowl outer rim -->
  <circle cx="1200" cy="800" r="556.0" fill="#FAF7F2" opacity="0.55"/>
  <circle cx="1200" cy="800" r="544" fill="url(#rim)"/>
  <circle cx="1200" cy="800" r="544" fill="none" stroke="#A8893F" stroke-width="1.5" opacity="0.18"/>

  <!-- pudding surface -->
  <circle cx="1200" cy="800" r="462.4" fill="url(#pudding)"/>
  <!-- subtle highlight -->
  <ellipse cx="1084.4" cy="684.4" rx="254.3" ry="161.8" fill="#FFFFFE" opacity="0.35"/>

  <!-- garnish -->
  <circle cx="1212.5" cy="989.7" r="3.4" fill="#A8893F" opacity="0.84"/>
  <circle cx="1265.4" cy="713.3" r="4.9" fill="#A8893F" opacity="0.64"/>
  <circle cx="1248.0" cy="617.2" r="3.4" fill="#7B5E2A" opacity="0.76"/>
  <circle cx="1045.2" cy="623.8" r="3.9" fill="#3D2817" opacity="0.71"/>
  <circle cx="1435.2" cy="1021.4" r="5.1" fill="#A8893F" opacity="0.67"/>
  <circle cx="1410.5" cy="994.5" r="2.2" fill="#7B5E2A" opacity="0.92"/>
  <circle cx="1317.1" cy="510.8" r="5.9" fill="#A8893F" opacity="0.69"/>
  <circle cx="1211.2" cy="736.3" r="2.9" fill="#3D2817" opacity="0.62"/>
  <circle cx="1125.1" cy="1130.4" r="5.0" fill="#3D2817" opacity="0.84"/>
  <circle cx="1350.7" cy="1003.0" r="4.4" fill="#7B5E2A" opacity="0.72"/>
  <circle cx="1192.5" cy="1084.1" r="3.8" fill="#A8893F" opacity="0.85"/>
  <circle cx="1248.2" cy="851.8" r="4.8" fill="#7B5E2A" opacity="0.78"/>
  <circle cx="1127.4" cy="1154.4" r="2.6" fill="#A8893F" opacity="0.57"/>
  <circle cx="993.7" cy="781.1" r="3.3" fill="#3D2817" opacity="0.75"/>
  <circle cx="1285.1" cy="1054.5" r="2.8" fill="#7B5E2A" opacity="0.70"/>
  <circle cx="1260.7" cy="876.1" r="4.8" fill="#3D2817" opacity="0.56"/>
  <circle cx="1189.3" cy="1019.2" r="5.2" fill="#7B5E2A" opacity="0.68"/>
  <circle cx="1488.4" cy="758.8" r="4.8" fill="#3D2817" opacity="0.56"/>
  <circle cx="1052.9" cy="622.3" r="2.7" fill="#7B5E2A" opacity="0.91"/>
  <circle cx="816.7" cy="832.1" r="4.5" fill="#3D2817" opacity="0.64"/>
  <circle cx="992.7" cy="648.0" r="2.4" fill="#3D2817" opacity="0.68"/>
  <circle cx="1225.4" cy="1060.4" r="4.7" fill="#7B5E2A" opacity="0.79"/>
  <circle cx="1455.4" cy="636.1" r="4.2" fill="#A8893F" opacity="0.86"/>
  <circle cx="1122.6" cy="498.3" r="2.7" fill="#7B5E2A" opacity="0.69"/>
  <circle cx="1209.2" cy="803.9" r="2.2" fill="#A8893F" opacity="0.78"/>
  <circle cx="1426.1" cy="685.5" r="3.5" fill="#3D2817" opacity="0.72"/>
  <circle cx="1483.4" cy="622.1" r="3.6" fill="#A8893F" opacity="0.81"/>
  <circle cx="960.6" cy="819.8" r="2.6" fill="#A8893F" opacity="0.76"/>
  <circle cx="947.7" cy="797.8" r="4.5" fill="#7B5E2A" opacity="0.65"/>
  <circle cx="923.8" cy="805.6" r="4.6" fill="#3D2817" opacity="0.83"/>
  <circle cx="1237.8" cy="488.5" r="3.0" fill="#A8893F" opacity="0.84"/>
  <circle cx="991.4" cy="611.9" r="3.2" fill="#3D2817" opacity="0.58"/>
  <circle cx="1284.5" cy="689.8" r="4.9" fill="#3D2817" opacity="0.87"/>
  <circle cx="1521.7" cy="1001.7" r="5.4" fill="#A8893F" opacity="0.71"/>
  <circle cx="1124.4" cy="1153.3" r="2.5" fill="#7B5E2A" opacity="0.61"/>
  <circle cx="987.9" cy="519.8" r="4.4" fill="#A8893F" opacity="0.87"/>
  <circle cx="1235.5" cy="812.3" r="6.0" fill="#7B5E2A" opacity="0.61"/>
  <circle cx="1152.1" cy="825.3" r="2.6" fill="#7B5E2A" opacity="0.61"/>
  <circle cx="1259.0" cy="981.1" r="3.3" fill="#A8893F" opacity="0.82"/>
  <circle cx="1025.9" cy="606.9" r="2.7" fill="#A8893F" opacity="0.83"/>

  
    <g opacity="0.75" transform="translate(1526.4 609.6) rotate(35)">
      <ellipse cx="0" cy="0" rx="38" ry="22" fill="#C9A961" opacity="0.85"/>
      <ellipse cx="0" cy="0" rx="30" ry="16" fill="#A8893F" opacity="0.7"/>
      <rect x="-6" y="20" width="12" height="160" rx="6" fill="#C9A961" opacity="0.9"/>
    </g>

  <!-- grain overlay -->
  <rect width="2400" height="1600" filter="url(#grain)" opacity="0.5"/>

  
</svg>