<?xml version="1.0" encoding="UTF-8"?>
<svg xmlns="http://www.w3.org/2000/svg" viewBox="0 0 2400 1600" preserveAspectRatio="xMidYMid slice">
  <defs>
    <radialGradient id="bg" cx="50%" cy="38%" r="80%">
      <stop offset="0%" stop-color="#E8DCC4"/>
      <stop offset="100%" stop-color="#A8893F"/>
    </radialGradient>
    <radialGradient id="rim" cx="50%" cy="45%" r="65%">
      <stop offset="0%" stop-color="#F2E4C6"/>
      <stop offset="100%" stop-color="#C9A961"/>
    </radialGradient>
    <radialGradient id="pudding" cx="50%" cy="42%" r="60%">
      <stop offset="0%" stop-color="#7A4B2A"/>
      <stop offset="100%" stop-color="#3D2817"/>
    </radialGradient>
    <filter id="soft" x="-20%" y="-20%" width="140%" height="140%">
      <feGaussianBlur stdDeviation="2"/>
    </filter>
    <filter id="grain" x="0" y="0" width="100%" height="100%">
      <feTurbulence type="fractalNoise" baseFrequency="0.85" numOctaves="2" seed="44"/>
      <feColorMatrix values="0 0 0 0 0.2  0 0 0 0 0.15  0 0 0 0 0.1  0 0 0 0.08 0"/>
      <feComposite in2="SourceGraphic" operator="in"/>
    </filter>
  </defs>

  <rect width="2400" height="1600" fill="url(#bg)"/>
  <line x1="0" y1="1248.0" x2="2400" y2="1250.0" stroke="#3D2817" stroke-width="1" opacity="0.04"/>
  <line x1="0" y1="1280.0" x2="2400" y2="1282.0" stroke="#3D2817" stroke-width="1" opacity="0.05"/>
  <line x1="0" y1="1312.0" x2="2400" y2="1314.0" stroke="#3D2817" stroke-width="1" opacity="0.07"/>
  <line x1="0" y1="1344.0" x2="2400" y2="1346.0" stroke="#3D2817" stroke-width="1" opacity="0.08"/>
  <line x1="0" y1="1376.0" x2="2400" y2="1378.0" stroke="#3D2817" stroke-width="1" opacity="0.04"/>
  <line x1="0" y1="1408.0" x2="2400" y2="1410.0" stroke="#3D2817" stroke-width="1" opacity="0.08"/>
  <line x1="0" y1="1440.0" x2="2400" y2="1442.0" stroke="#3D2817" stroke-width="1" opacity="0.04"/>
  <line x1="0" y1="1472.0" x2="2400" y2="1474.0" stroke="#3D2817" stroke-width="1" opacity="0.09"/>
  <line x1="0" y1="1504.0" x2="2400" y2="1506.0" stroke="#3D2817" stroke-width="1" opacity="0.08"/>
  <line x1="0" y1="1536.0" x2="2400" y2="1538.0" stroke="#3D2817" stroke-width="1" opacity="0.07"/>
  <line x1="0" y1="1568.0" x2="2400" y2="1570.0" stroke="#3D2817" stroke-width="1" opacity="0.08"/>
  <line x1="0" y1="1600.0" x2="2400" y2="1602.0" stroke="#3D2817" stroke-width="1" opacity="0.09"/>
  <line x1="0" y1="1632.0" x2="2400" y2="1634.0" stroke="#3D2817" stroke-width="1" opacity="0.04"/>
  <line x1="0" y1="1664.0" x2="2400" y2="1666.0" stroke="#3D2817" stroke-width="1" opacity="0.06"/>

  <!-- table shadow under bowl -->
  <ellipse cx="1200" cy="1316.8" rx="571.2" ry="97.9" fill="#3D2817" opacity="0.12" filter="url(#soft)"/>

  <!-- bowl outer rim -->
  <circle cx="1200" cy="800" r="556.0" fill="#FAF7F2" opacity="0.55"/>
  <circle cx="1200" cy="800" r="544" fill="url(#rim)"/>
  <circle cx="1200" cy="800" r="544" fill="none" stroke="#A8893F" stroke-width="1.5" opacity="0.18"/>

  <!-- pudding surface -->
  <circle cx="1200" cy="800" r="462.4" fill="url(#pudding)"/>
  <!-- subtle highlight -->
  <ellipse cx="1084.4" cy="684.4" rx="254.3" ry="161.8" fill="#FFFFFE" opacity="0.35"/>

  <!-- garnish -->
  <circle cx="1196.0" cy="987.7" r="5.8" fill="#FFFEFB" opacity="0.83"/>
  <circle cx="983.3" cy="773.4" r="5.8" fill="#5A3E26" opacity="0.59"/>
  <circle cx="1224.5" cy="463.6" r="4.4" fill="#5A3E26" opacity="0.57"/>
  <circle cx="1459.9" cy="834.7" r="5.9" fill="#C9A961" opacity="0.82"/>
  <circle cx="1398.3" cy="717.9" r="5.6" fill="#C9A961" opacity="0.62"/>
  <circle cx="1134.9" cy="593.4" r="3.5" fill="#FFFEFB" opacity="0.67"/>
  <circle cx="1316.9" cy="1115.1" r="5.0" fill="#FFFEFB" opacity="0.74"/>
  <circle cx="1231.9" cy="995.5" r="3.4" fill="#C9A961" opacity="0.55"/>
  <circle cx="1019.3" cy="848.0" r="2.9" fill="#FFFEFB" opacity="0.81"/>
  <circle cx="1408.2" cy="992.1" r="2.3" fill="#C9A961" opacity="0.59"/>
  <circle cx="883.9" cy="587.6" r="2.5" fill="#5A3E26" opacity="0.92"/>
  <circle cx="1097.1" cy="473.0" r="3.3" fill="#C9A961" opacity="0.90"/>
  <circle cx="1024.0" cy="626.1" r="2.5" fill="#FFFEFB" opacity="0.85"/>
  <circle cx="1215.1" cy="983.5" r="5.6" fill="#FFFEFB" opacity="0.81"/>
  <circle cx="917.2" cy="853.0" r="5.3" fill="#C9A961" opacity="0.60"/>
  <circle cx="1322.9" cy="594.4" r="5.7" fill="#FFFEFB" opacity="0.69"/>
  <circle cx="877.7" cy="998.8" r="5.8" fill="#FFFEFB" opacity="0.62"/>
  <circle cx="1508.3" cy="864.5" r="2.1" fill="#5A3E26" opacity="0.69"/>
  <circle cx="878.0" cy="653.6" r="4.3" fill="#C9A961" opacity="0.62"/>
  <circle cx="1162.5" cy="627.0" r="5.9" fill="#5A3E26" opacity="0.68"/>
  <circle cx="1477.2" cy="859.5" r="4.6" fill="#C9A961" opacity="0.92"/>
  <circle cx="1042.4" cy="755.9" r="5.0" fill="#5A3E26" opacity="0.86"/>
  <circle cx="1153.1" cy="485.8" r="3.9" fill="#5A3E26" opacity="0.73"/>
  <circle cx="1333.1" cy="1077.2" r="4.8" fill="#5A3E26" opacity="0.93"/>
  <circle cx="1093.4" cy="1039.6" r="5.4" fill="#5A3E26" opacity="0.66"/>
  <circle cx="873.3" cy="768.5" r="2.4" fill="#5A3E26" opacity="0.60"/>
  <circle cx="1453.3" cy="788.8" r="5.4" fill="#FFFEFB" opacity="0.93"/>
  <circle cx="873.8" cy="879.7" r="5.0" fill="#C9A961" opacity="0.84"/>
  <circle cx="1374.9" cy="1078.0" r="4.2" fill="#5A3E26" opacity="0.59"/>
  <circle cx="1222.6" cy="666.9" r="3.1" fill="#FFFEFB" opacity="0.78"/>
  <circle cx="1179.1" cy="984.9" r="3.8" fill="#5A3E26" opacity="0.64"/>
  <circle cx="1083.1" cy="965.9" r="2.5" fill="#5A3E26" opacity="0.94"/>
  <circle cx="1198.0" cy="990.7" r="4.0" fill="#5A3E26" opacity="0.83"/>
  <circle cx="1479.4" cy="913.0" r="5.1" fill="#FFFEFB" opacity="0.95"/>
  <circle cx="877.7" cy="825.6" r="5.4" fill="#C9A961" opacity="0.59"/>
  <circle cx="1059.2" cy="621.7" r="3.3" fill="#FFFEFB" opacity="0.65"/>
  <circle cx="1127.4" cy="1019.5" r="2.7" fill="#5A3E26" opacity="0.74"/>
  <circle cx="1106.5" cy="914.9" r="3.3" fill="#C9A961" opacity="0.95"/>
  <circle cx="1374.8" cy="609.1" r="3.4" fill="#5A3E26" opacity="0.69"/>
  <circle cx="1356.9" cy="944.5" r="4.6" fill="#FFFEFB" opacity="0.72"/>
  <circle cx="1082.8" cy="965.4" r="3.1" fill="#5A3E26" opacity="0.82"/>
  <circle cx="1401.2" cy="557.8" r="5.4" fill="#5A3E26" opacity="0.93"/>
  <circle cx="1432.0" cy="560.6" r="3.5" fill="#5A3E26" opacity="0.87"/>
  <circle cx="1342.7" cy="1064.8" r="4.2" fill="#5A3E26" opacity="0.79"/>
  <circle cx="1257.6" cy="885.2" r="4.5" fill="#FFFEFB" opacity="0.59"/>
  <circle cx="1012.4" cy="1051.1" r="4.5" fill="#FFFEFB" opacity="0.82"/>
  <circle cx="1462.6" cy="691.8" r="2.5" fill="#5A3E26" opacity="0.66"/>
  <circle cx="1442.6" cy="985.5" r="3.4" fill="#C9A961" opacity="0.83"/>
  <circle cx="887.9" cy="861.0" r="4.7" fill="#C9A961" opacity="0.91"/>
  <circle cx="896.9" cy="843.6" r="4.4" fill="#FFFEFB" opacity="0.92"/>

  

  <!-- grain overlay -->
  <rect width="2400" height="1600" filter="url(#grain)" opacity="0.5"/>

  
</svg>