<?xml version="1.0" encoding="UTF-8"?>
<svg xmlns="http://www.w3.org/2000/svg" viewBox="0 0 2400 1600" preserveAspectRatio="xMidYMid slice">
  <defs>
    <radialGradient id="bg" cx="50%" cy="38%" r="80%">
      <stop offset="0%" stop-color="#E5DEC1"/>
      <stop offset="100%" stop-color="#B8B07A"/>
    </radialGradient>
    <radialGradient id="rim" cx="50%" cy="45%" r="65%">
      <stop offset="0%" stop-color="#FFFEFB"/>
      <stop offset="100%" stop-color="#E8DCC4"/>
    </radialGradient>
    <radialGradient id="pudding" cx="50%" cy="42%" r="60%">
      <stop offset="0%" stop-color="#E8E0BD"/>
      <stop offset="100%" stop-color="#B8B07A"/>
    </radialGradient>
    <filter id="soft" x="-20%" y="-20%" width="140%" height="140%">
      <feGaussianBlur stdDeviation="2"/>
    </filter>
    <filter id="grain" x="0" y="0" width="100%" height="100%">
      <feTurbulence type="fractalNoise" baseFrequency="0.85" numOctaves="2" seed="33"/>
      <feColorMatrix values="0 0 0 0 0.2  0 0 0 0 0.15  0 0 0 0 0.1  0 0 0 0.08 0"/>
      <feComposite in2="SourceGraphic" operator="in"/>
    </filter>
  </defs>

  <rect width="2400" height="1600" fill="url(#bg)"/>
  <line x1="0" y1="1248.0" x2="2400" y2="1250.0" stroke="#3D2817" stroke-width="1" opacity="0.05"/>
  <line x1="0" y1="1280.0" x2="2400" y2="1282.0" stroke="#3D2817" stroke-width="1" opacity="0.05"/>
  <line x1="0" y1="1312.0" x2="2400" y2="1314.0" stroke="#3D2817" stroke-width="1" opacity="0.05"/>
  <line x1="0" y1="1344.0" x2="2400" y2="1346.0" stroke="#3D2817" stroke-width="1" opacity="0.07"/>
  <line x1="0" y1="1376.0" x2="2400" y2="1378.0" stroke="#3D2817" stroke-width="1" opacity="0.04"/>
  <line x1="0" y1="1408.0" x2="2400" y2="1410.0" stroke="#3D2817" stroke-width="1" opacity="0.08"/>
  <line x1="0" y1="1440.0" x2="2400" y2="1442.0" stroke="#3D2817" stroke-width="1" opacity="0.08"/>
  <line x1="0" y1="1472.0" x2="2400" y2="1474.0" stroke="#3D2817" stroke-width="1" opacity="0.09"/>
  <line x1="0" y1="1504.0" x2="2400" y2="1506.0" stroke="#3D2817" stroke-width="1" opacity="0.07"/>
  <line x1="0" y1="1536.0" x2="2400" y2="1538.0" stroke="#3D2817" stroke-width="1" opacity="0.04"/>
  <line x1="0" y1="1568.0" x2="2400" y2="1570.0" stroke="#3D2817" stroke-width="1" opacity="0.09"/>
  <line x1="0" y1="1600.0" x2="2400" y2="1602.0" stroke="#3D2817" stroke-width="1" opacity="0.06"/>
  <line x1="0" y1="1632.0" x2="2400" y2="1634.0" stroke="#3D2817" stroke-width="1" opacity="0.04"/>
  <line x1="0" y1="1664.0" x2="2400" y2="1666.0" stroke="#3D2817" stroke-width="1" opacity="0.07"/>

  <!-- table shadow under bowl -->
  <ellipse cx="1200" cy="1316.8" rx="571.2" ry="97.9" fill="#3D2817" opacity="0.12" filter="url(#soft)"/>

  <!-- bowl outer rim -->
  <circle cx="1200" cy="800" r="556.0" fill="#FAF7F2" opacity="0.55"/>
  <circle cx="1200" cy="800" r="544" fill="url(#rim)"/>
  <circle cx="1200" cy="800" r="544" fill="none" stroke="#A8893F" stroke-width="1.5" opacity="0.18"/>

  <!-- pudding surface -->
  <circle cx="1200" cy="800" r="462.4" fill="url(#pudding)"/>
  <!-- subtle highlight -->
  <ellipse cx="1084.4" cy="684.4" rx="254.3" ry="161.8" fill="#FFFFFE" opacity="0.35"/>

  <!-- garnish -->
  <circle cx="1201.5" cy="988.5" r="3.7" fill="#C49A6C" opacity="0.70"/>
  <circle cx="1115.1" cy="1061.1" r="5.5" fill="#5A6B2F" opacity="0.74"/>
  <circle cx="1228.1" cy="591.9" r="5.4" fill="#5A6B2F" opacity="0.77"/>
  <circle cx="1472.2" cy="608.0" r="5.3" fill="#5A6B2F" opacity="0.91"/>
  <circle cx="1135.2" cy="907.2" r="4.1" fill="#7A8B3F" opacity="0.90"/>
  <circle cx="1393.1" cy="539.3" r="5.7" fill="#5A6B2F" opacity="0.75"/>
  <circle cx="1185.2" cy="664.8" r="2.6" fill="#7A8B3F" opacity="0.59"/>
  <circle cx="1526.8" cy="955.6" r="3.2" fill="#7A8B3F" opacity="0.71"/>
  <circle cx="990.5" cy="944.2" r="2.2" fill="#5A6B2F" opacity="0.55"/>
  <circle cx="1315.0" cy="920.1" r="5.7" fill="#5A6B2F" opacity="0.63"/>
  <circle cx="914.2" cy="825.0" r="4.3" fill="#5A6B2F" opacity="0.63"/>
  <circle cx="1283.9" cy="971.1" r="2.4" fill="#5A6B2F" opacity="0.86"/>
  <circle cx="990.6" cy="783.4" r="2.5" fill="#7A8B3F" opacity="0.62"/>
  <circle cx="1402.5" cy="796.8" r="3.5" fill="#C49A6C" opacity="0.66"/>
  <circle cx="1552.0" cy="896.7" r="5.8" fill="#5A6B2F" opacity="0.64"/>
  <circle cx="1027.3" cy="679.8" r="4.1" fill="#5A6B2F" opacity="0.65"/>
  <circle cx="1326.6" cy="817.0" r="4.3" fill="#5A6B2F" opacity="0.91"/>
  <circle cx="1113.8" cy="625.2" r="5.6" fill="#5A6B2F" opacity="0.91"/>
  <circle cx="1179.3" cy="1013.3" r="5.1" fill="#C49A6C" opacity="0.59"/>
  <circle cx="1074.6" cy="1104.7" r="4.1" fill="#7A8B3F" opacity="0.80"/>
  <circle cx="1481.4" cy="594.8" r="2.6" fill="#C49A6C" opacity="0.71"/>
  <circle cx="1251.7" cy="518.2" r="2.2" fill="#7A8B3F" opacity="0.57"/>
  <circle cx="1221.1" cy="717.1" r="4.0" fill="#C49A6C" opacity="0.64"/>
  <circle cx="1438.8" cy="837.5" r="2.8" fill="#C49A6C" opacity="0.85"/>
  <circle cx="1383.8" cy="673.1" r="5.7" fill="#C49A6C" opacity="0.56"/>
  <circle cx="1042.5" cy="1119.8" r="2.8" fill="#5A6B2F" opacity="0.91"/>
  <circle cx="1094.8" cy="1122.0" r="2.1" fill="#7A8B3F" opacity="0.63"/>
  <circle cx="1338.9" cy="943.8" r="5.5" fill="#C49A6C" opacity="0.81"/>
  <circle cx="1143.7" cy="1089.9" r="5.6" fill="#7A8B3F" opacity="0.61"/>
  <circle cx="1043.3" cy="483.8" r="3.6" fill="#C49A6C" opacity="0.67"/>
  <circle cx="1212.7" cy="690.1" r="4.8" fill="#7A8B3F" opacity="0.57"/>
  <circle cx="894.2" cy="920.7" r="5.4" fill="#7A8B3F" opacity="0.55"/>
  <circle cx="1262.0" cy="534.2" r="4.3" fill="#5A6B2F" opacity="0.84"/>
  <circle cx="1419.8" cy="904.2" r="2.5" fill="#5A6B2F" opacity="0.74"/>
  <circle cx="1201.0" cy="677.1" r="3.1" fill="#7A8B3F" opacity="0.86"/>
  <circle cx="1125.4" cy="951.5" r="5.0" fill="#C49A6C" opacity="0.86"/>

  
    <g opacity="0.75" transform="translate(1526.4 609.6) rotate(35)">
      <ellipse cx="0" cy="0" rx="38" ry="22" fill="#C9A961" opacity="0.85"/>
      <ellipse cx="0" cy="0" rx="30" ry="16" fill="#A8893F" opacity="0.7"/>
      <rect x="-6" y="20" width="12" height="160" rx="6" fill="#C9A961" opacity="0.9"/>
    </g>

  <!-- grain overlay -->
  <rect width="2400" height="1600" filter="url(#grain)" opacity="0.5"/>

  
</svg>