<?xml version="1.0" encoding="UTF-8"?>
<svg xmlns="http://www.w3.org/2000/svg" viewBox="0 0 2400 1600" preserveAspectRatio="xMidYMid slice">
  <defs>
    <radialGradient id="bg" cx="50%" cy="38%" r="80%">
      <stop offset="0%" stop-color="#EDDAB8"/>
      <stop offset="100%" stop-color="#C9A961"/>
    </radialGradient>
    <radialGradient id="rim" cx="50%" cy="45%" r="65%">
      <stop offset="0%" stop-color="#FFFEFB"/>
      <stop offset="100%" stop-color="#E8DCC4"/>
    </radialGradient>
    <radialGradient id="pudding" cx="50%" cy="42%" r="60%">
      <stop offset="0%" stop-color="#EFD4A0"/>
      <stop offset="100%" stop-color="#C28E48"/>
    </radialGradient>
    <filter id="soft" x="-20%" y="-20%" width="140%" height="140%">
      <feGaussianBlur stdDeviation="2"/>
    </filter>
    <filter id="grain" x="0" y="0" width="100%" height="100%">
      <feTurbulence type="fractalNoise" baseFrequency="0.85" numOctaves="2" seed="22"/>
      <feColorMatrix values="0 0 0 0 0.2  0 0 0 0 0.15  0 0 0 0 0.1  0 0 0 0.08 0"/>
      <feComposite in2="SourceGraphic" operator="in"/>
    </filter>
  </defs>

  <rect width="2400" height="1600" fill="url(#bg)"/>
  <line x1="0" y1="1248.0" x2="2400" y2="1250.0" stroke="#3D2817" stroke-width="1" opacity="0.04"/>
  <line x1="0" y1="1280.0" x2="2400" y2="1282.0" stroke="#3D2817" stroke-width="1" opacity="0.05"/>
  <line x1="0" y1="1312.0" x2="2400" y2="1314.0" stroke="#3D2817" stroke-width="1" opacity="0.06"/>
  <line x1="0" y1="1344.0" x2="2400" y2="1346.0" stroke="#3D2817" stroke-width="1" opacity="0.04"/>
  <line x1="0" y1="1376.0" x2="2400" y2="1378.0" stroke="#3D2817" stroke-width="1" opacity="0.04"/>
  <line x1="0" y1="1408.0" x2="2400" y2="1410.0" stroke="#3D2817" stroke-width="1" opacity="0.09"/>
  <line x1="0" y1="1440.0" x2="2400" y2="1442.0" stroke="#3D2817" stroke-width="1" opacity="0.05"/>
  <line x1="0" y1="1472.0" x2="2400" y2="1474.0" stroke="#3D2817" stroke-width="1" opacity="0.04"/>
  <line x1="0" y1="1504.0" x2="2400" y2="1506.0" stroke="#3D2817" stroke-width="1" opacity="0.07"/>
  <line x1="0" y1="1536.0" x2="2400" y2="1538.0" stroke="#3D2817" stroke-width="1" opacity="0.09"/>
  <line x1="0" y1="1568.0" x2="2400" y2="1570.0" stroke="#3D2817" stroke-width="1" opacity="0.07"/>
  <line x1="0" y1="1600.0" x2="2400" y2="1602.0" stroke="#3D2817" stroke-width="1" opacity="0.07"/>
  <line x1="0" y1="1632.0" x2="2400" y2="1634.0" stroke="#3D2817" stroke-width="1" opacity="0.05"/>
  <line x1="0" y1="1664.0" x2="2400" y2="1666.0" stroke="#3D2817" stroke-width="1" opacity="0.08"/>

  <!-- table shadow under bowl -->
  <ellipse cx="1200" cy="1316.8" rx="571.2" ry="97.9" fill="#3D2817" opacity="0.12" filter="url(#soft)"/>

  <!-- bowl outer rim -->
  <circle cx="1200" cy="800" r="556.0" fill="#FAF7F2" opacity="0.55"/>
  <circle cx="1200" cy="800" r="544" fill="url(#rim)"/>
  <circle cx="1200" cy="800" r="544" fill="none" stroke="#A8893F" stroke-width="1.5" opacity="0.18"/>

  <!-- pudding surface -->
  <circle cx="1200" cy="800" r="462.4" fill="url(#pudding)"/>
  <!-- subtle highlight -->
  <ellipse cx="1084.4" cy="684.4" rx="254.3" ry="161.8" fill="#FFFFFE" opacity="0.35"/>

  <!-- garnish -->
  <circle cx="1207.0" cy="989.2" r="5.5" fill="#5A3E26" opacity="0.57"/>
  <circle cx="1521.9" cy="942.7" r="5.2" fill="#FFFEFB" opacity="0.89"/>
  <circle cx="1263.2" cy="481.1" r="2.4" fill="#FFFEFB" opacity="0.56"/>
  <circle cx="1212.9" cy="700.3" r="4.6" fill="#FFFEFB" opacity="0.61"/>
  <circle cx="1149.8" cy="455.5" r="2.6" fill="#FFFEFB" opacity="0.79"/>
  <circle cx="1360.8" cy="786.3" r="4.0" fill="#3D2817" opacity="0.84"/>
  <circle cx="1166.9" cy="1036.5" r="4.3" fill="#FFFEFB" opacity="0.84"/>
  <circle cx="1436.6" cy="690.4" r="3.0" fill="#FFFEFB" opacity="0.87"/>
  <circle cx="1028.8" cy="1047.2" r="5.6" fill="#3D2817" opacity="0.70"/>
  <circle cx="1419.6" cy="1059.9" r="5.0" fill="#FFFEFB" opacity="0.67"/>
  <circle cx="1126.4" cy="872.7" r="2.0" fill="#5A3E26" opacity="0.74"/>
  <circle cx="1029.8" cy="553.4" r="5.6" fill="#FFFEFB" opacity="0.82"/>
  <circle cx="1082.7" cy="881.9" r="2.6" fill="#FFFEFB" opacity="0.79"/>
  <circle cx="1208.4" cy="611.6" r="5.4" fill="#3D2817" opacity="0.91"/>
  <circle cx="1072.8" cy="683.9" r="2.3" fill="#FFFEFB" opacity="0.67"/>
  <circle cx="1079.4" cy="909.4" r="2.4" fill="#3D2817" opacity="0.60"/>
  <circle cx="1078.1" cy="664.3" r="2.7" fill="#3D2817" opacity="0.79"/>
  <circle cx="1021.1" cy="1104.6" r="5.2" fill="#5A3E26" opacity="0.74"/>
  <circle cx="1551.4" cy="706.7" r="5.9" fill="#3D2817" opacity="0.95"/>
  <circle cx="1394.3" cy="664.2" r="2.3" fill="#3D2817" opacity="0.92"/>
  <circle cx="1200.2" cy="662.4" r="4.5" fill="#3D2817" opacity="0.90"/>
  <circle cx="1306.7" cy="803.8" r="3.4" fill="#FFFEFB" opacity="0.68"/>
  <circle cx="1328.9" cy="625.1" r="4.1" fill="#3D2817" opacity="0.55"/>
  <circle cx="1264.4" cy="736.9" r="4.7" fill="#5A3E26" opacity="0.77"/>
  <circle cx="1038.2" cy="815.8" r="6.0" fill="#5A3E26" opacity="0.87"/>
  <circle cx="1324.8" cy="906.2" r="3.2" fill="#5A3E26" opacity="0.81"/>
  <circle cx="1022.5" cy="680.4" r="2.9" fill="#FFFEFB" opacity="0.72"/>
  <circle cx="1331.8" cy="494.0" r="2.1" fill="#3D2817" opacity="0.78"/>
  <circle cx="978.1" cy="969.2" r="3.1" fill="#3D2817" opacity="0.63"/>
  <circle cx="919.7" cy="638.1" r="4.1" fill="#FFFEFB" opacity="0.95"/>
  <circle cx="1159.0" cy="1145.2" r="5.9" fill="#3D2817" opacity="0.90"/>
  <circle cx="1058.3" cy="775.6" r="4.3" fill="#3D2817" opacity="0.57"/>
  <circle cx="1054.4" cy="1105.7" r="4.6" fill="#5A3E26" opacity="0.86"/>
  <circle cx="1346.6" cy="880.3" r="4.0" fill="#3D2817" opacity="0.92"/>
  <circle cx="1491.0" cy="827.1" r="4.8" fill="#5A3E26" opacity="0.74"/>
  <circle cx="1289.0" cy="792.5" r="2.7" fill="#5A3E26" opacity="0.66"/>
  <circle cx="1295.9" cy="902.8" r="2.2" fill="#5A3E26" opacity="0.78"/>
  <circle cx="1429.6" cy="887.0" r="4.2" fill="#5A3E26" opacity="0.59"/>
  <circle cx="1394.1" cy="912.7" r="4.7" fill="#3D2817" opacity="0.91"/>
  <circle cx="1281.8" cy="575.9" r="2.0" fill="#5A3E26" opacity="0.79"/>
  <circle cx="925.3" cy="909.5" r="2.9" fill="#FFFEFB" opacity="0.73"/>
  <circle cx="1463.2" cy="933.4" r="3.2" fill="#3D2817" opacity="0.70"/>
  <circle cx="982.7" cy="584.0" r="3.2" fill="#5A3E26" opacity="0.82"/>
  <circle cx="1240.8" cy="795.8" r="3.4" fill="#3D2817" opacity="0.80"/>
  <circle cx="1407.7" cy="876.2" r="4.3" fill="#5A3E26" opacity="0.61"/>

  

  <!-- grain overlay -->
  <rect width="2400" height="1600" filter="url(#grain)" opacity="0.5"/>

  
</svg>